<svg id="kity_svg_6" xmlns="http://www.w3.org/2000/svg" xmlns:xlink="http://www.w3.org/1999/xlink" version="1.1" width="1248" height="599" style="background: rgb(251, 251, 251); visibility: visible;" viewBox="0 0 1248 599"><defs id="kity_defs_7"><linearGradient id="kity_linearGradient_17" x1="0" y1="0" x2="0" y2="1"><stop id="kity_stop_18" offset="0" stop-color="rgb(255, 255, 255)"></stop><stop id="kity_stop_19" offset="1" stop-color="rgb(204, 204, 204)"></stop></linearGradient><marker id="kity_marker_2" orient="auto" refX="6" refY="0" viewBox="-7 -7 14 14" markerWidth="7" markerHeight="7" markerUnits="userSpaceOnUse"><path id="kity_path_3" fill="rgb(115, 161, 191)" stroke="none" d="M6,0A6,6,0,1,1,-6,0A6,6,0,1,1,6,0"></path></marker></defs><g id="kity_g_8"><g id="minder1" text-rendering="optimize-speed"><g id="minder_connect_group1"><path id="kity_path_31" fill="none" stroke="rgb(115, 161, 191)" stroke-width="1" d="M77.5,235.5A142,139,0,0,1,219.5,96.5"></path><path id="kity_path_39" fill="none" stroke="rgb(115, 161, 191)" stroke-width="1" d="M77.5,235.5A83,141,0,0,0,160.5,376.5"></path><path id="kity_path_331" fill="none" stroke="rgb(115, 161, 191)" stroke-width="1" d="M814.5,198.5C829.5,198.5,829.5,146.5,844.5,146.5L981.5,146.5"></path><path id="kity_path_332" fill="none" stroke="rgb(115, 161, 191)" stroke-width="1" d="M814.5,198.5C829.5,198.5,829.5,198.5,844.5,198.5L1088.5,198.5"></path><path id="kity_path_333" fill="none" stroke="rgb(115, 161, 191)" stroke-width="1" d="M814.5,198.5C829.5,198.5,829.5,250.5,844.5,250.5L915.5,250.5"></path><path id="kity_path_334" fill="none" stroke="rgb(115, 161, 191)" stroke-width="1" d="M705.5,198.5C720.5,198.5,720.5,198.5,735.5,198.5L814.5,198.5"></path><path id="kity_path_335" fill="none" stroke="rgb(115, 161, 191)" stroke-width="1" d="M500.5,263.5C515.5,263.5,515.5,198.5,530.5,198.5L705.5,198.5"></path><path id="kity_path_336" fill="none" stroke="rgb(115, 161, 191)" stroke-width="1" d="M933.5,302.5C948.5,302.5,948.5,302.5,963.5,302.5L1028.5,302.5"></path><path id="kity_path_337" fill="none" stroke="rgb(115, 161, 191)" stroke-width="1" d="M719.5,328.5C734.5,328.5,734.5,302.5,749.5,302.5L933.5,302.5"></path><path id="kity_path_338" fill="none" stroke="rgb(115, 161, 191)" stroke-width="1" d="M888.5,354.5C903.5,354.5,903.5,354.5,918.5,354.5L1058.5,354.5"></path><path id="kity_path_339" fill="none" stroke="rgb(115, 161, 191)" stroke-width="1" d="M719.5,328.5C734.5,328.5,734.5,354.5,749.5,354.5L888.5,354.5"></path><path id="kity_path_340" fill="none" stroke="rgb(115, 161, 191)" stroke-width="1" d="M598.5,328.5C613.5,328.5,613.5,328.5,628.5,328.5L719.5,328.5"></path><path id="kity_path_341" fill="none" stroke="rgb(115, 161, 191)" stroke-width="1" d="M500.5,263.5C515.5,263.5,515.5,328.5,530.5,328.5L598.5,328.5"></path><path id="kity_path_342" fill="none" stroke="rgb(115, 161, 191)" stroke-width="1" d="M371.5,376.5C390,376.5,390,263.5,408.5,263.5L500.5,263.5"></path><path id="kity_path_343" fill="none" stroke="rgb(115, 161, 191)" stroke-width="1" d="M724.5,449.5C739.5,449.5,739.5,423.5,754.5,423.5L907.5,423.5"></path><path id="kity_path_344" fill="none" stroke="rgb(115, 161, 191)" stroke-width="1" d="M724.5,449.5C739.5,449.5,739.5,475.5,754.5,475.5L912.5,475.5"></path><path id="kity_path_345" fill="none" stroke="rgb(115, 161, 191)" stroke-width="1" d="M614.5,501.5C629.5,501.5,629.5,449.5,644.5,449.5L724.5,449.5"></path><path id="kity_path_346" fill="none" stroke="rgb(115, 161, 191)" stroke-width="1" d="M821.5,527.5C836.5,527.5,836.5,527.5,851.5,527.5L1211.5,527.5"></path><path id="kity_path_347" fill="none" stroke="rgb(115, 161, 191)" stroke-width="1" d="M723.5,553.5C738.5,553.5,738.5,527.5,753.5,527.5L821.5,527.5"></path><path id="kity_path_348" fill="none" stroke="rgb(115, 161, 191)" stroke-width="1" d="M723.5,553.5C738.5,553.5,738.5,579.5,753.5,579.5L843.5,579.5"></path><path id="kity_path_349" fill="none" stroke="rgb(115, 161, 191)" stroke-width="1" d="M614.5,501.5C629.5,501.5,629.5,553.5,644.5,553.5L723.5,553.5"></path><path id="kity_path_350" fill="none" stroke="rgb(115, 161, 191)" stroke-width="1" d="M493.5,501.5C508.5,501.5,508.5,501.5,523.5,501.5L614.5,501.5"></path><path id="kity_path_351" fill="none" stroke="rgb(115, 161, 191)" stroke-width="1" d="M371.5,376.5C386.5,376.5,386.5,501.5,401.5,501.5L493.5,501.5"></path><path id="kity_path_353" fill="none" stroke="rgb(115, 161, 191)" stroke-width="1" d="M843.5,579.5C858.5,579.5,858.5,579.5,873.5,579.5L1228.5,579.5"></path><path id="kity_path_360" fill="none" stroke="rgb(115, 161, 191)" stroke-width="1" d="M507.5,71.5C522.5,71.5,522.5,45.5,537.5,45.5L709.5,45.5"></path><path id="kity_path_361" fill="none" stroke="rgb(115, 161, 191)" stroke-width="1" d="M507.5,71.5C522.5,71.5,522.5,97.5,537.5,97.5L673.5,97.5"></path><path id="kity_path_362" fill="none" stroke="rgb(115, 161, 191)" stroke-width="1" d="M346.5,96.5C361.5,96.5,361.5,71.5,376.5,71.5L507.5,71.5"></path><path id="kity_path_363" fill="none" stroke="rgb(115, 161, 191)" stroke-width="1" d="M346.5,96.5C361.5,96.5,361.5,149.5,376.5,149.5L599.5,149.5"></path></g><g id="minder_node1"><path id="node_outline1" fill="rgb(115, 161, 191)" stroke="rgb(115, 161, 191)" d="M25.5,215.5h104a5,5,0,0,1,5,5v30a5,5,0,0,1,-5,5h-104a5,5,0,0,1,-5,-5v-30a5,5,0,0,1,5,-5z" stroke-width="3"></path><g id="node_text1" fill="white"><text id="kity_text_22" text-rendering="inherit" font-size="16" dy=".8em" y="225.09999990463257" x="44.5">数据优化</text></g></g><g id="kity_g_14" display="none"><path id="kity_path_15" fill="none" stroke="none" d="M44.5,235.5h0v0h0z"></path><path id="kity_path_16" fill="none" stroke="none"></path></g><g id="minder_node2" opacity="1"><g id="node_expander1" style="cursor: pointer;"><path id="kity_path_36" fill="white" stroke="gray" d="M220.5,96.5A6,6,0,1,1,208.5,96.5A6,6,0,1,1,220.5,96.5"></path><path id="kity_path_37" fill="none" stroke="gray" d="M210,96.5L219,96.5"></path></g><path id="node_outline2" fill="rgb(238, 243, 246)" stroke="rgb(115, 161, 191)" d="M224.5,83.5h119a3,3,0,0,1,3,3v20a3,3,0,0,1,-3,3h-119a3,3,0,0,1,-3,-3v-20a3,3,0,0,1,3,-3z" stroke-width="1"></path><g id="node_text2" fill="black"><text id="kity_text_33" text-rendering="inherit" font-size="14" dy=".8em" y="87.40000009536743" x="241.5">去掉无用数据</text></g></g><g id="minder_node3" opacity="1"><g id="node_expander2" style="cursor: pointer;"><path id="kity_path_44" fill="white" stroke="gray" d="M384.5,376.5A6,6,0,1,1,372.5,376.5A6,6,0,1,1,384.5,376.5"></path><path id="kity_path_45" fill="none" stroke="gray" d="M374,376.5L383,376.5"></path></g><path id="node_outline3" fill="rgb(238, 243, 246)" stroke="rgb(115, 161, 191)" d="M165.5,363.5h203a3,3,0,0,1,3,3v20a3,3,0,0,1,-3,3h-203a3,3,0,0,1,-3,-3v-20a3,3,0,0,1,3,-3z" stroke-width="1"></path><g id="node_text3" fill="black"><text id="kity_text_41" text-rendering="inherit" font-size="14" dy=".8em" y="367.40000009536743" x="182.5">增加有用数据（数据增强）</text></g></g><g id="kity_g_12" display="none"><path id="kity_path_13" fill="none" stroke="rgb(66, 94, 112)" d="M333.5,357.5h203a3,3,0,0,1,3,3v20a3,3,0,0,1,-3,3h-203a3,3,0,0,1,-3,-3v-20a3,3,0,0,1,3,-3z" stroke-width="5"></path></g><g id="minder_node14"><g id="node_expander13" style="cursor: pointer;" display="none"><path id="kity_path_179" fill="white" stroke="gray" d="M854.5,132.5A6,6,0,1,1,842.5,132.5A6,6,0,1,1,854.5,132.5"></path><path id="kity_path_180" fill="none" stroke="gray"></path></g><path id="node_outline14" fill="none" stroke="none" d="M859.5,121.5h117a5,5,0,0,1,5,5v12a5,5,0,0,1,-5,5h-117a5,5,0,0,1,-5,-5v-12a5,5,0,0,1,5,-5z" stroke-width="3"></path><g id="node_text14" fill="black"><text id="kity_text_176" text-rendering="inherit" font-size="12" dy=".8em" y="124.70000004768372" x="864.5">Transfer Adaboost</text></g></g><g id="minder_node15"><g id="node_expander14" style="cursor: pointer;" display="none"><path id="kity_path_187" fill="white" stroke="gray" d="M854.5,184.5A6,6,0,1,1,842.5,184.5A6,6,0,1,1,854.5,184.5"></path><path id="kity_path_188" fill="none" stroke="gray"></path></g><path id="node_outline15" fill="none" stroke="none" d="M859.5,173.5h224a5,5,0,0,1,5,5v12a5,5,0,0,1,-5,5h-224a5,5,0,0,1,-5,-5v-12a5,5,0,0,1,5,-5z" stroke-width="3"></path><g id="node_text15" fill="black"><text id="kity_text_184" text-rendering="inherit" font-size="12" dy=".8em" y="176.70000004768372" x="864.5">JDA（Joint Distribution Adaptation）</text></g></g><g id="minder_node16"><g id="node_expander15" style="cursor: pointer;" display="none"><path id="kity_path_211" fill="white" stroke="gray" d="M854.5,236.5A6,6,0,1,1,842.5,236.5A6,6,0,1,1,854.5,236.5"></path><path id="kity_path_212" fill="none" stroke="gray"></path></g><path id="node_outline16" fill="none" stroke="none" d="M859.5,225.5h51a5,5,0,0,1,5,5v12a5,5,0,0,1,-5,5h-51a5,5,0,0,1,-5,-5v-12a5,5,0,0,1,5,-5z" stroke-width="3"></path><g id="node_text16" fill="black"><text id="kity_text_208" text-rendering="inherit" font-size="12" dy=".8em" y="228.70000004768372" x="864.5">DTELM</text></g></g><g id="minder_node12"><g id="node_expander11" style="cursor: pointer;"><path id="kity_path_118" fill="white" stroke="gray" d="M745.5,184.5A6,6,0,1,1,733.5,184.5A6,6,0,1,1,745.5,184.5"></path><path id="kity_path_119" fill="none" stroke="gray" d="M735,184.5L744,184.5"></path></g><path id="node_outline12" fill="none" stroke="none" d="M750.5,173.5h59a5,5,0,0,1,5,5v12a5,5,0,0,1,-5,5h-59a5,5,0,0,1,-5,-5v-12a5,5,0,0,1,5,-5z" stroke-width="3"></path><g id="node_text12" fill="black"><text id="kity_text_115" text-rendering="inherit" font-size="12" dy=".8em" y="176.70000004768372" x="755.5">迁移学习</text></g></g><g id="minder_node10"><g id="node_expander9" style="cursor: pointer;"><path id="kity_path_102" fill="white" stroke="gray" d="M540.5,184.5A6,6,0,1,1,528.5,184.5A6,6,0,1,1,540.5,184.5"></path><path id="kity_path_103" fill="none" stroke="gray" d="M530,184.5L539,184.5"></path></g><path id="node_outline10" fill="none" stroke="none" d="M545.5,173.5h155a5,5,0,0,1,5,5v12a5,5,0,0,1,-5,5h-155a5,5,0,0,1,-5,-5v-12a5,5,0,0,1,5,-5z" stroke-width="3"></path><g id="node_text10" fill="black"><text id="kity_text_99" text-rendering="inherit" font-size="12" dy=".8em" y="176.70000004768372" x="550.5">有类似任务（即包含标签）</text></g></g><g id="minder_node19"><g id="node_expander18" style="cursor: pointer;" display="none"><path id="kity_path_235" fill="white" stroke="gray" d="M973.5,288.5A6,6,0,1,1,961.5,288.5A6,6,0,1,1,973.5,288.5"></path><path id="kity_path_236" fill="none" stroke="gray"></path></g><path id="node_outline19" fill="none" stroke="none" d="M978.5,277.5h45a5,5,0,0,1,5,5v12a5,5,0,0,1,-5,5h-45a5,5,0,0,1,-5,-5v-12a5,5,0,0,1,5,-5z" stroke-width="3"></path><g id="node_text19" fill="black"><text id="kity_text_232" text-rendering="inherit" font-size="12" dy=".8em" y="280.7000000476837" x="983.5">TSVM</text></g></g><g id="minder_node17"><g id="node_expander16" style="cursor: pointer;"><path id="kity_path_219" fill="white" stroke="gray" d="M759.5,288.5A6,6,0,1,1,747.5,288.5A6,6,0,1,1,759.5,288.5"></path><path id="kity_path_220" fill="none" stroke="gray" d="M749,288.5L758,288.5"></path></g><path id="node_outline17" fill="none" stroke="none" d="M764.5,277.5h164a5,5,0,0,1,5,5v12a5,5,0,0,1,-5,5h-164a5,5,0,0,1,-5,-5v-12a5,5,0,0,1,5,-5z" stroke-width="3"></path><g id="node_text17" fill="black"><text id="kity_text_216" text-rendering="inherit" font-size="12" dy=".8em" y="280.7000000476837" x="769.5">S3VM（半监督支持向量机）</text></g></g><g id="minder_node20"><g id="node_expander19" style="cursor: pointer;" display="none"><path id="kity_path_243" fill="white" stroke="gray" d="M928.5,340.5A6,6,0,1,1,916.5,340.5A6,6,0,1,1,928.5,340.5"></path><path id="kity_path_244" fill="none" stroke="gray"></path></g><path id="node_outline20" fill="none" stroke="none" d="M933.5,329.5h120a5,5,0,0,1,5,5v12a5,5,0,0,1,-5,5h-120a5,5,0,0,1,-5,-5v-12a5,5,0,0,1,5,-5z" stroke-width="3"></path><g id="node_text20" fill="black"><text id="kity_text_240" text-rendering="inherit" font-size="12" dy=".8em" y="332.7000000476837" x="938.5">LP（标签传播算法）</text></g></g><g id="minder_node18"><g id="node_expander17" style="cursor: pointer;"><path id="kity_path_227" fill="white" stroke="gray" d="M759.5,340.5A6,6,0,1,1,747.5,340.5A6,6,0,1,1,759.5,340.5"></path><path id="kity_path_228" fill="none" stroke="gray" d="M749,340.5L758,340.5"></path></g><path id="node_outline18" fill="none" stroke="none" d="M764.5,329.5h119a5,5,0,0,1,5,5v12a5,5,0,0,1,-5,5h-119a5,5,0,0,1,-5,-5v-12a5,5,0,0,1,5,-5z" stroke-width="3"></path><g id="node_text18" fill="black"><text id="kity_text_224" text-rendering="inherit" font-size="12" dy=".8em" y="332.7000000476837" x="769.5">基于图的半监督学习</text></g></g><g id="minder_node13"><g id="node_expander12" style="cursor: pointer;"><path id="kity_path_145" fill="white" stroke="gray" d="M638.5,314.5A6,6,0,1,1,626.5,314.5A6,6,0,1,1,638.5,314.5"></path><path id="kity_path_146" fill="none" stroke="gray" d="M628,314.5L637,314.5"></path></g><path id="node_outline13" fill="none" stroke="none" d="M643.5,303.5h71a5,5,0,0,1,5,5v12a5,5,0,0,1,-5,5h-71a5,5,0,0,1,-5,-5v-12a5,5,0,0,1,5,-5z" stroke-width="3"></path><g id="node_text13" fill="black"><text id="kity_text_142" text-rendering="inherit" font-size="12" dy=".8em" y="306.7000000476837" x="648.5">半监督学习</text></g></g><g id="minder_node11"><g id="node_expander10" style="cursor: pointer;"><path id="kity_path_110" fill="white" stroke="gray" d="M540.5,314.5A6,6,0,1,1,528.5,314.5A6,6,0,1,1,540.5,314.5"></path><path id="kity_path_111" fill="none" stroke="gray" d="M530,314.5L539,314.5"></path></g><path id="node_outline11" fill="none" stroke="none" d="M545.5,303.5h48a5,5,0,0,1,5,5v12a5,5,0,0,1,-5,5h-48a5,5,0,0,1,-5,-5v-12a5,5,0,0,1,5,-5z" stroke-width="3"></path><g id="node_text11" fill="black"><text id="kity_text_107" text-rendering="inherit" font-size="12" dy=".8em" y="306.7000000476837" x="550.5">无标签</text></g></g><g id="minder_node8" opacity="1"><g id="node_expander7" style="cursor: pointer;"><path id="kity_path_84" fill="white" stroke="gray" d="M418.5,249.5A6,6,0,1,1,406.5,249.5A6,6,0,1,1,418.5,249.5"></path><path id="kity_path_85" fill="none" stroke="gray" d="M408,249.5L417,249.5"></path></g><path id="node_outline8" fill="none" stroke="none" d="M423.5,238.5h72a5,5,0,0,1,5,5v12a5,5,0,0,1,-5,5h-72a5,5,0,0,1,-5,-5v-12a5,5,0,0,1,5,-5z" stroke-width="3"></path><g id="node_text8" fill="black"><text id="kity_text_81" text-rendering="inherit" font-size="12" dy=".8em" y="241.70000004768372" x="428.5">有类似样本</text></g></g><g id="minder_node24"><g id="node_expander23" style="cursor: pointer;" display="none"><path id="kity_path_275" fill="white" stroke="gray" d="M764.5,409.5A6,6,0,1,1,752.5,409.5A6,6,0,1,1,764.5,409.5"></path><path id="kity_path_276" fill="none" stroke="gray"></path></g><path id="node_outline24" fill="none" stroke="none" d="M769.5,398.5h133a5,5,0,0,1,5,5v12a5,5,0,0,1,-5,5h-133a5,5,0,0,1,-5,-5v-12a5,5,0,0,1,5,-5z" stroke-width="3"></path><g id="node_text24" fill="black"><text id="kity_text_272" text-rendering="inherit" font-size="12" dy=".8em" y="401.7000000476837" x="774.5">GAN（生成对抗模型）</text></g></g><g id="minder_node25"><g id="node_expander24" style="cursor: pointer;" display="none"><path id="kity_path_283" fill="white" stroke="gray" d="M764.5,461.5A6,6,0,1,1,752.5,461.5A6,6,0,1,1,764.5,461.5"></path><path id="kity_path_284" fill="none" stroke="gray"></path></g><path id="node_outline25" fill="none" stroke="none" d="M769.5,450.5h138a5,5,0,0,1,5,5v12a5,5,0,0,1,-5,5h-138a5,5,0,0,1,-5,-5v-12a5,5,0,0,1,5,-5z" stroke-width="3"></path><g id="node_text25" fill="black"><text id="kity_text_280" text-rendering="inherit" font-size="12" dy=".8em" y="453.7000000476837" x="774.5">GMM（高斯混合模型）</text></g></g><g id="minder_node22"><g id="node_expander21" style="cursor: pointer;"><path id="kity_path_259" fill="white" stroke="gray" d="M654.5,435.5A6,6,0,1,1,642.5,435.5A6,6,0,1,1,654.5,435.5"></path><path id="kity_path_260" fill="none" stroke="gray" d="M644,435.5L653,435.5"></path></g><path id="node_outline22" fill="none" stroke="none" d="M659.5,424.5h60a5,5,0,0,1,5,5v12a5,5,0,0,1,-5,5h-60a5,5,0,0,1,-5,-5v-12a5,5,0,0,1,5,-5z" stroke-width="3"></path><g id="node_text22" fill="black"><text id="kity_text_256" text-rendering="inherit" font-size="12" dy=".8em" y="427.7000000476837" x="664.5">基于算法</text></g></g><g id="minder_node28"><g id="node_expander27" style="cursor: pointer;" display="none"><path id="kity_path_329" fill="white" stroke="gray" d="M861.5,513.5A6,6,0,1,1,849.5,513.5A6,6,0,1,1,861.5,513.5"></path><path id="kity_path_330" fill="none" stroke="gray"></path></g><path id="node_outline28" fill="none" stroke="none" d="M866.5,502.5h340a5,5,0,0,1,5,5v12a5,5,0,0,1,-5,5h-340a5,5,0,0,1,-5,-5v-12a5,5,0,0,1,5,-5z" stroke-width="3"></path><g id="node_text28" fill="black"><text id="kity_text_326" text-rendering="inherit" font-size="12" dy=".8em" y="505.7000000476837" x="871.5">SMOTE插值（注意需要先过滤掉异常样本，避免负作用扩大）</text></g></g><g id="minder_node26"><g id="node_expander25" style="cursor: pointer;"><path id="kity_path_313" fill="white" stroke="gray" d="M763.5,513.5A6,6,0,1,1,751.5,513.5A6,6,0,1,1,763.5,513.5"></path><path id="kity_path_314" fill="none" stroke="gray" d="M753,513.5L762,513.5"></path></g><path id="node_outline26" fill="none" stroke="none" d="M768.5,502.5h48a5,5,0,0,1,5,5v12a5,5,0,0,1,-5,5h-48a5,5,0,0,1,-5,-5v-12a5,5,0,0,1,5,-5z" stroke-width="3"></path><g id="node_text26" fill="black"><text id="kity_text_310" text-rendering="inherit" font-size="12" dy=".8em" y="505.7000000476837" x="773.5">过采样</text></g></g><g id="minder_node27"><g id="node_expander26" style="cursor: pointer;"><path id="kity_path_321" fill="white" stroke="gray" d="M763.5,565.5A6,6,0,1,1,751.5,565.5A6,6,0,1,1,763.5,565.5"></path><path id="kity_path_322" fill="none" stroke="gray" d="M753,565.5L762,565.5"></path></g><path id="node_outline27" fill="none" stroke="none" d="M768.5,554.5h70a5,5,0,0,1,5,5v12a5,5,0,0,1,-5,5h-70a5,5,0,0,1,-5,-5v-12a5,5,0,0,1,5,-5z" stroke-width="3"></path><g id="node_text27" fill="black"><text id="kity_text_318" text-rendering="inherit" font-size="12" dy=".8em" y="557.7000000476837" x="773.5">自定义规则</text></g></g><g id="minder_node23"><g id="node_expander22" style="cursor: pointer;"><path id="kity_path_267" fill="white" stroke="gray" d="M654.5,539.5A6,6,0,1,1,642.5,539.5A6,6,0,1,1,654.5,539.5"></path><path id="kity_path_268" fill="none" stroke="gray" d="M644,539.5L653,539.5"></path></g><path id="node_outline23" fill="none" stroke="none" d="M659.5,528.5h59a5,5,0,0,1,5,5v12a5,5,0,0,1,-5,5h-59a5,5,0,0,1,-5,-5v-12a5,5,0,0,1,5,-5z" stroke-width="3"></path><g id="node_text23" fill="black"><text id="kity_text_264" text-rendering="inherit" font-size="12" dy=".8em" y="531.7000000476837" x="664.5">基于规则</text></g></g><g id="minder_node21"><g id="node_expander20" style="cursor: pointer;"><path id="kity_path_251" fill="white" stroke="gray" d="M533.5,487.5A6,6,0,1,1,521.5,487.5A6,6,0,1,1,533.5,487.5"></path><path id="kity_path_252" fill="none" stroke="gray" d="M523,487.5L532,487.5"></path></g><path id="node_outline21" fill="none" stroke="none" d="M538.5,476.5h71a5,5,0,0,1,5,5v12a5,5,0,0,1,-5,5h-71a5,5,0,0,1,-5,-5v-12a5,5,0,0,1,5,-5z" stroke-width="3"></path><g id="node_text21" fill="black"><text id="kity_text_248" text-rendering="inherit" font-size="12" dy=".8em" y="479.7000000476837" x="543.5">自造伪数据</text></g></g><g id="minder_node9"><g id="node_expander8" style="cursor: pointer;"><path id="kity_path_92" fill="white" stroke="gray" d="M411.5,487.5A6,6,0,1,1,399.5,487.5A6,6,0,1,1,411.5,487.5"></path><path id="kity_path_93" fill="none" stroke="gray" d="M401,487.5L410,487.5"></path></g><path id="node_outline9" fill="none" stroke="none" d="M416.5,476.5h72a5,5,0,0,1,5,5v12a5,5,0,0,1,-5,5h-72a5,5,0,0,1,-5,-5v-12a5,5,0,0,1,5,-5z" stroke-width="3"></path><g id="node_text9" fill="black"><text id="kity_text_89" text-rendering="inherit" font-size="12" dy=".8em" y="479.7000000476837" x="421.5">无类似样本</text></g></g><g id="minder_node29"><g id="node_expander28" style="cursor: pointer;" display="none"><path id="kity_path_358" fill="white" stroke="gray" d="M883.5,565.5A6,6,0,1,1,871.5,565.5A6,6,0,1,1,883.5,565.5"></path><path id="kity_path_359" fill="none" stroke="gray"></path></g><path id="node_outline29" fill="none" stroke="none" d="M888.5,554.5h335a5,5,0,0,1,5,5v12a5,5,0,0,1,-5,5h-335a5,5,0,0,1,-5,-5v-12a5,5,0,0,1,5,-5z" stroke-width="3"></path><g id="node_text29" fill="black"><text id="kity_text_355" text-rendering="inherit" font-size="12" dy=".8em" y="557.7000000476837" x="893.5">比如替换某些特征，删除某些特征可以认为对标签值影响不大</text></g></g><g id="minder_node6"><g id="node_expander5" style="cursor: pointer;" display="none"><path id="kity_path_68" fill="white" stroke="gray" d="M547.5,31.5A6,6,0,1,1,535.5,31.5A6,6,0,1,1,547.5,31.5"></path><path id="kity_path_69" fill="none" stroke="gray"></path></g><path id="node_outline6" fill="none" stroke="none" d="M552.5,20.5h152a5,5,0,0,1,5,5v12a5,5,0,0,1,-5,5h-152a5,5,0,0,1,-5,-5v-12a5,5,0,0,1,5,-5z" stroke-width="3"></path><g id="node_text6" fill="black"><text id="kity_text_65" text-rendering="inherit" font-size="12" dy=".8em" y="23.700000047683716" x="557.5">LOF（局部异常因子）检测</text></g></g><g id="minder_node7"><g id="node_expander6" style="cursor: pointer;" display="none"><path id="kity_path_76" fill="white" stroke="gray" d="M547.5,83.5A6,6,0,1,1,535.5,83.5A6,6,0,1,1,547.5,83.5"></path><path id="kity_path_77" fill="none" stroke="gray"></path></g><path id="node_outline7" fill="none" stroke="none" d="M552.5,72.5h116a5,5,0,0,1,5,5v12a5,5,0,0,1,-5,5h-116a5,5,0,0,1,-5,-5v-12a5,5,0,0,1,5,-5z" stroke-width="3"></path><g id="node_text7" fill="black"><text id="kity_text_73" text-rendering="inherit" font-size="12" dy=".8em" y="75.70000004768372" x="557.5">IF（孤立森林）检测</text></g></g><g id="minder_node4"><g id="node_expander3" style="cursor: pointer;"><path id="kity_path_52" fill="white" stroke="gray" d="M386.5,57.5A6,6,0,1,1,374.5,57.5A6,6,0,1,1,386.5,57.5"></path><path id="kity_path_53" fill="none" stroke="gray" d="M376,57.5L385,57.5"></path></g><path id="node_outline4" fill="none" stroke="none" d="M391.5,46.5h111a5,5,0,0,1,5,5v12a5,5,0,0,1,-5,5h-111a5,5,0,0,1,-5,-5v-12a5,5,0,0,1,5,-5z" stroke-width="3"></path><g id="node_text4" fill="black"><text id="kity_text_49" text-rendering="inherit" font-size="12" dy=".8em" y="49.700000047683716" x="396.5">异常点/离群点检测</text></g></g><g id="minder_node5"><g id="node_expander4" style="cursor: pointer;" display="none"><path id="kity_path_60" fill="white" stroke="gray" d="M386.5,135.5A6,6,0,1,1,374.5,135.5A6,6,0,1,1,386.5,135.5"></path><path id="kity_path_61" fill="none" stroke="gray"></path></g><path id="node_outline5" fill="none" stroke="none" d="M391.5,124.5h203a5,5,0,0,1,5,5v12a5,5,0,0,1,-5,5h-203a5,5,0,0,1,-5,-5v-12a5,5,0,0,1,5,-5z" stroke-width="3"></path><g id="node_text5" fill="black"><text id="kity_text_57" text-rendering="inherit" font-size="12" dy=".8em" y="127.70000004768372" x="396.5">代价敏感学习（弱化异常点的影响）</text></g></g></g></g></svg>