<svg id="kity_svg_6" xmlns="http://www.w3.org/2000/svg" xmlns:xlink="http://www.w3.org/1999/xlink" version="1.1" width="1354" height="1362" style="background: rgb(251, 251, 251); visibility: visible;" viewBox="0 0 1354 1362"><defs id="kity_defs_7"><linearGradient id="kity_linearGradient_17" x1="0" y1="0" x2="0" y2="1"><stop id="kity_stop_18" offset="0" stop-color="rgb(255, 255, 255)"></stop><stop id="kity_stop_19" offset="1" stop-color="rgb(204, 204, 204)"></stop></linearGradient><marker id="kity_marker_2" orient="auto" refX="6" refY="0" viewBox="-7 -7 14 14" markerWidth="7" markerHeight="7" markerUnits="userSpaceOnUse"><path id="kity_path_3" fill="rgb(115, 161, 191)" stroke="none" d="M6,0A6,6,0,1,1,-6,0A6,6,0,1,1,6,0"></path></marker></defs><g id="kity_g_8"><g id="minder1" text-rendering="optimize-speed"><g id="minder_connect_group1"><path id="kity_path_31" fill="none" stroke="rgb(115, 161, 191)" stroke-width="1" d="M77.5,836.5A244,220,0,0,1,321.5,616.5"></path><path id="kity_path_39" fill="none" stroke="rgb(115, 161, 191)" stroke-width="1" d="M77.5,836.5A223,241,0,0,0,300.5,1077.5"></path><path id="kity_path_590" fill="none" stroke="rgb(115, 161, 191)" stroke-width="1" d="M615.5,752.5C630.5,752.5,630.5,726.5,645.5,726.5L766.5,726.5"></path><path id="kity_path_591" fill="none" stroke="rgb(115, 161, 191)" stroke-width="1" d="M776.5,778.5C791.5,778.5,791.5,778.5,806.5,778.5L956.5,778.5"></path><path id="kity_path_592" fill="none" stroke="rgb(115, 161, 191)" stroke-width="1" d="M615.5,752.5C630.5,752.5,630.5,778.5,645.5,778.5L776.5,778.5"></path><path id="kity_path_593" fill="none" stroke="rgb(115, 161, 191)" stroke-width="1" d="M449.5,616.5C486.5,616.5,486.5,752.5,523.5,752.5L615.5,752.5"></path><path id="kity_path_594" fill="none" stroke="rgb(115, 161, 191)" stroke-width="1" d="M618.5,625.5C633.5,625.5,633.5,625.5,648.5,625.5L880.5,625.5"></path><path id="kity_path_595" fill="none" stroke="rgb(115, 161, 191)" stroke-width="1" d="M449.5,616.5C488,616.5,488,625.5,526.5,625.5L618.5,625.5"></path><path id="kity_path_596" fill="none" stroke="rgb(115, 161, 191)" stroke-width="1" d="M842.5,45.5C857.5,45.5,857.5,46.5,872.5,46.5L1119.5,46.5"></path><path id="kity_path_597" fill="none" stroke="rgb(115, 161, 191)" stroke-width="1" d="M733.5,123.5C748.5,123.5,748.5,45.5,763.5,45.5L842.5,45.5"></path><path id="kity_path_598" fill="none" stroke="rgb(115, 161, 191)" stroke-width="1" d="M917.5,97.5C923,97.5,923,97.5,928.5,97.5L1334.5,97.5"></path><path id="kity_path_599" fill="none" stroke="rgb(115, 161, 191)" stroke-width="1" d="M733.5,123.5C748.5,123.5,748.5,97.5,763.5,97.5L917.5,97.5"></path><path id="kity_path_600" fill="none" stroke="rgb(115, 161, 191)" stroke-width="1" d="M733.5,123.5C748.5,123.5,748.5,149.5,763.5,149.5L902.5,149.5"></path><path id="kity_path_601" fill="none" stroke="rgb(115, 161, 191)" stroke-width="1" d="M733.5,123.5C748.5,123.5,748.5,201.5,763.5,201.5L840.5,201.5"></path><path id="kity_path_602" fill="none" stroke="rgb(115, 161, 191)" stroke-width="1" d="M595.5,270.5C613,270.5,613,123.5,630.5,123.5L733.5,123.5"></path><path id="kity_path_603" fill="none" stroke="rgb(115, 161, 191)" stroke-width="1" d="M740.5,361.5C755.5,361.5,755.5,283.5,770.5,283.5L850.5,283.5"></path><path id="kity_path_604" fill="none" stroke="rgb(115, 161, 191)" stroke-width="1" d="M861.5,361.5C876.5,361.5,876.5,335.5,891.5,335.5L947.5,335.5"></path><path id="kity_path_605" fill="none" stroke="rgb(115, 161, 191)" stroke-width="1" d="M861.5,361.5C876.5,361.5,876.5,387.5,891.5,387.5L947.5,387.5"></path><path id="kity_path_606" fill="none" stroke="rgb(115, 161, 191)" stroke-width="1" d="M740.5,361.5C755.5,361.5,755.5,361.5,770.5,361.5L861.5,361.5"></path><path id="kity_path_607" fill="none" stroke="rgb(115, 161, 191)" stroke-width="1" d="M740.5,361.5C755.5,361.5,755.5,439.5,770.5,439.5L843.5,439.5"></path><path id="kity_path_608" fill="none" stroke="rgb(115, 161, 191)" stroke-width="1" d="M595.5,270.5C616.5,270.5,616.5,361.5,637.5,361.5L740.5,361.5"></path><path id="kity_path_609" fill="none" stroke="rgb(115, 161, 191)" stroke-width="1" d="M449.5,616.5C476.5,616.5,476.5,270.5,503.5,270.5L595.5,270.5"></path><path id="kity_path_610" fill="none" stroke="rgb(115, 161, 191)" stroke-width="1" d="M733.5,490.5C748.5,490.5,748.5,490.5,763.5,490.5L1172.5,490.5"></path><path id="kity_path_611" fill="none" stroke="rgb(115, 161, 191)" stroke-width="1" d="M643.5,516.5C658.5,516.5,658.5,490.5,673.5,490.5L733.5,490.5"></path><path id="kity_path_612" fill="none" stroke="rgb(115, 161, 191)" stroke-width="1" d="M643.5,516.5C658.5,516.5,658.5,542.5,673.5,542.5L798.5,542.5"></path><path id="kity_path_613" fill="none" stroke="rgb(115, 161, 191)" stroke-width="1" d="M449.5,616.5C482.5,616.5,482.5,516.5,515.5,516.5L643.5,516.5"></path><path id="kity_path_614" fill="none" stroke="rgb(115, 161, 191)" stroke-width="1" d="M737.5,806.5C746,806.5,746,806.5,754.5,806.5L1014.5,806.5"></path><path id="kity_path_615" fill="none" stroke="rgb(115, 161, 191)" stroke-width="1" d="M582.5,896.5C608,896.5,608,806.5,633.5,806.5L737.5,806.5"></path><path id="kity_path_616" fill="none" stroke="rgb(115, 161, 191)" stroke-width="1" d="M772.5,979.5C794,979.5,794,953.5,815.5,953.5L907.5,953.5"></path><path id="kity_path_617" fill="none" stroke="rgb(115, 161, 191)" stroke-width="1" d="M772.5,979.5C796,979.5,796,1012.5,819.5,1012.5L1004.5,1012.5"></path><path id="kity_path_618" fill="none" stroke="rgb(115, 161, 191)" stroke-width="1" d="M582.5,896.5C607.5,896.5,607.5,979.5,632.5,979.5L772.5,979.5"></path><path id="kity_path_619" fill="none" stroke="rgb(115, 161, 191)" stroke-width="1" d="M742.5,895.5C762,895.5,762,894.5,781.5,894.5L888.5,894.5"></path><path id="kity_path_620" fill="none" stroke="rgb(115, 161, 191)" stroke-width="1" d="M582.5,896.5C616.5,896.5,616.5,895.5,650.5,895.5L742.5,895.5"></path><path id="kity_path_621" fill="none" stroke="rgb(115, 161, 191)" stroke-width="1" d="M427.5,1077.5C465,1077.5,465,896.5,502.5,896.5L582.5,896.5"></path><path id="kity_path_625" fill="none" stroke="rgb(115, 161, 191)" stroke-width="1" d="M427.5,1077.5C470.5,1077.5,470.5,1212.5,513.5,1212.5L593.5,1212.5"></path><path id="kity_path_626" fill="none" stroke="rgb(115, 161, 191)" stroke-width="1" d="M593.5,1212.5C626,1212.5,626,1090.5,658.5,1090.5L804.5,1090.5"></path><path id="kity_path_627" fill="none" stroke="rgb(115, 161, 191)" stroke-width="1" d="M593.5,1212.5C629.5,1212.5,629.5,1148.5,665.5,1148.5L720.5,1148.5"></path><path id="kity_path_628" fill="none" stroke="rgb(115, 161, 191)" stroke-width="1" d="M593.5,1212.5C623,1212.5,623,1208.5,652.5,1208.5L796.5,1208.5"></path><path id="kity_path_638" fill="none" stroke="rgb(115, 161, 191)" stroke-width="1" d="M593.5,1212.5C625.5,1212.5,625.5,1275.5,657.5,1275.5L796.5,1275.5"></path><path id="kity_path_657" fill="none" stroke="rgb(115, 161, 191)" stroke-width="1" d="M593.5,1212.5C627,1212.5,627,1342.5,660.5,1342.5L763.5,1342.5"></path><path id="kity_path_664" fill="none" stroke="rgb(115, 161, 191)" stroke-width="1" d="M796.5,1275.5C818.5,1275.5,818.5,1275.5,840.5,1275.5L1039.5,1275.5"></path><path id="kity_path_665" fill="none" stroke="rgb(115, 161, 191)" stroke-width="1" d="M796.5,1208.5C814,1208.5,814,1210.5,831.5,1210.5L1150.5,1210.5"></path></g><g id="minder_node1"><path id="node_outline1" fill="rgb(115, 161, 191)" stroke="rgb(115, 161, 191)" d="M25.5,816.5h104a5,5,0,0,1,5,5v30a5,5,0,0,1,-5,5h-104a5,5,0,0,1,-5,-5v-30a5,5,0,0,1,5,-5z" stroke-width="3"></path><g id="node_text1" fill="white"><text id="kity_text_22" text-rendering="inherit" font-size="16" dy=".8em" y="826.0999999046326" x="44.5">特征优化</text></g></g><g id="kity_g_14" display="none"><path id="kity_path_15" fill="rgba(0, 92, 153, 0.5)" stroke="none" d="M580.5,972.5h130v15h-130z"></path><path id="kity_path_16" fill="none" stroke="rgb(0, 76, 128)" d="M580.5,987.5L710.5,987.5" stroke-width="1"></path></g><g id="minder_node2" opacity="1"><g id="node_expander1" style="cursor: pointer;"><path id="kity_path_36" fill="white" stroke="gray" d="M322.5,616.5A6,6,0,1,1,310.5,616.5A6,6,0,1,1,322.5,616.5"></path><path id="kity_path_37" fill="none" stroke="gray" d="M312,616.5L321,616.5"></path></g><path id="node_outline2" fill="rgb(238, 243, 246)" stroke="rgb(115, 161, 191)" d="M326.5,603.5h120a3,3,0,0,1,3,3v20a3,3,0,0,1,-3,3h-120a3,3,0,0,1,-3,-3v-20a3,3,0,0,1,3,-3z" stroke-width="1"></path><g id="node_text2" fill="black"><text id="kity_text_33" text-rendering="inherit" font-size="14" dy=".8em" y="607.4000000953674" x="343.5">增加有用特征</text></g></g><g id="minder_node3" opacity="1"><g id="node_expander2" style="cursor: pointer;"><path id="kity_path_44" fill="white" stroke="gray" d="M440.5,1077.5A6,6,0,1,1,428.5,1077.5A6,6,0,1,1,440.5,1077.5"></path><path id="kity_path_45" fill="none" stroke="gray" d="M430,1077.5L439,1077.5"></path></g><path id="node_outline3" fill="rgb(238, 243, 246)" stroke="rgb(115, 161, 191)" d="M305.5,1064.5h119a3,3,0,0,1,3,3v20a3,3,0,0,1,-3,3h-119a3,3,0,0,1,-3,-3v-20a3,3,0,0,1,3,-3z" stroke-width="1"></path><g id="node_text3" fill="black"><text id="kity_text_41" text-rendering="inherit" font-size="14" dy=".8em" y="1068.4000000953674" x="322.5">去掉无用特征</text></g></g><g id="minder_node13"><g id="node_expander12" style="cursor: pointer;" display="none"><path id="kity_path_131" fill="white" stroke="gray" d="M655.5,712.5A6,6,0,1,1,643.5,712.5A6,6,0,1,1,655.5,712.5"></path><path id="kity_path_132" fill="none" stroke="gray"></path></g><path id="node_outline13" fill="none" stroke="none" d="M660.5,701.5h101a5,5,0,0,1,5,5v12a5,5,0,0,1,-5,5h-101a5,5,0,0,1,-5,-5v-12a5,5,0,0,1,5,-5z" stroke-width="3"></path><g id="node_text13" fill="black"><text id="kity_text_128" text-rendering="inherit" font-size="12" dy=".8em" y="704.7000000476837" x="665.5">FM进行特征交叉</text></g></g><g id="minder_node15"><g id="node_expander14" style="cursor: pointer;" display="none"><path id="kity_path_149" fill="white" stroke="gray" d="M816.5,764.5A6,6,0,1,1,804.5,764.5A6,6,0,1,1,816.5,764.5"></path><path id="kity_path_150" fill="none" stroke="gray"></path></g><path id="node_outline15" fill="none" stroke="none" d="M821.5,753.5h130a5,5,0,0,1,5,5v12a5,5,0,0,1,-5,5h-130a5,5,0,0,1,-5,-5v-12a5,5,0,0,1,5,-5z" stroke-width="3"></path><g id="node_text15" fill="black"><text id="kity_text_146" text-rendering="inherit" font-size="12" dy=".8em" y="756.7000000476837" x="826.5">比如Wide&amp;Deep模型</text></g></g><g id="minder_node14"><g id="node_expander13" style="cursor: pointer;"><path id="kity_path_139" fill="white" stroke="gray" d="M655.5,764.5A6,6,0,1,1,643.5,764.5A6,6,0,1,1,655.5,764.5"></path><path id="kity_path_140" fill="none" stroke="gray" d="M645,764.5L654,764.5"></path></g><path id="node_outline14" fill="none" stroke="none" d="M660.5,753.5h111a5,5,0,0,1,5,5v12a5,5,0,0,1,-5,5h-111a5,5,0,0,1,-5,-5v-12a5,5,0,0,1,5,-5z" stroke-width="3"></path><g id="node_text14" fill="black"><text id="kity_text_136" text-rendering="inherit" font-size="12" dy=".8em" y="756.7000000476837" x="665.5">DNN进行表征学习</text></g></g><g id="minder_node4" opacity="1"><g id="node_expander3" style="cursor: pointer;"><path id="kity_path_52" fill="white" stroke="gray" d="M533.5,738.5A6,6,0,1,1,521.5,738.5A6,6,0,1,1,533.5,738.5"></path><path id="kity_path_53" fill="none" stroke="gray" d="M523,738.5L532,738.5"></path></g><path id="node_outline4" fill="none" stroke="none" d="M538.5,727.5h72a5,5,0,0,1,5,5v12a5,5,0,0,1,-5,5h-72a5,5,0,0,1,-5,-5v-12a5,5,0,0,1,5,-5z" stroke-width="3"></path><g id="node_text4" fill="black"><text id="kity_text_49" text-rendering="inherit" font-size="12" dy=".8em" y="730.7000000476837" x="543.5">算法类特征</text></g></g><g id="minder_node10"><g id="node_expander9" style="cursor: pointer;" display="none"><path id="kity_path_100" fill="white" stroke="gray" d="M658.5,611.5A6,6,0,1,1,646.5,611.5A6,6,0,1,1,658.5,611.5"></path><path id="kity_path_101" fill="none" stroke="gray"></path></g><path id="node_outline10" fill="none" stroke="none" d="M663.5,600.5h212a5,5,0,0,1,5,5v12a5,5,0,0,1,-5,5h-212a5,5,0,0,1,-5,-5v-12a5,5,0,0,1,5,-5z" stroke-width="3"></path><g id="node_text10" fill="black"><text id="kity_text_97" text-rendering="inherit" font-size="12" dy=".8em" y="603.7000000476837" x="668.5">比如最近一周,最近一月xxx特征的聚合</text></g></g><g id="minder_node5" opacity="1"><g id="node_expander4" style="cursor: pointer;"><path id="kity_path_60" fill="white" stroke="gray" d="M536.5,611.5A6,6,0,1,1,524.5,611.5A6,6,0,1,1,536.5,611.5"></path><path id="kity_path_61" fill="none" stroke="gray" d="M526,611.5L535,611.5"></path></g><path id="node_outline5" fill="none" stroke="none" d="M541.5,600.5h72a5,5,0,0,1,5,5v12a5,5,0,0,1,-5,5h-72a5,5,0,0,1,-5,-5v-12a5,5,0,0,1,5,-5z" stroke-width="3"></path><g id="node_text5" fill="black"><text id="kity_text_57" text-rendering="inherit" font-size="12" dy=".8em" y="603.7000000476837" x="546.5">统计类特征</text></g></g><g id="minder_node9" opacity="1"><g id="node_expander8" style="cursor: pointer;" display="none"><path id="kity_path_92" fill="white" stroke="gray" d="M882.5,32.5A6,6,0,1,1,870.5,32.5A6,6,0,1,1,882.5,32.5"></path><path id="kity_path_93" fill="none" stroke="gray"></path></g><path id="node_outline9" fill="none" stroke="none" d="M887.5,21.5h227a5,5,0,0,1,5,5v12a5,5,0,0,1,-5,5h-227a5,5,0,0,1,-5,-5v-12a5,5,0,0,1,5,-5z" stroke-width="3"></path><g id="node_text9" fill="black"><text id="kity_text_89" text-rendering="inherit" font-size="12" dy=".8em" y="24.700000047683716" x="892.5">即通常采用的手段，通过业务知识造特征</text></g></g><g id="minder_node6" opacity="1"><g id="node_expander5" style="cursor: pointer;"><path id="kity_path_68" fill="white" stroke="gray" d="M773.5,31.5A6,6,0,1,1,761.5,31.5A6,6,0,1,1,773.5,31.5"></path><path id="kity_path_69" fill="none" stroke="gray" d="M763,31.5L772,31.5"></path></g><path id="node_outline6" fill="none" stroke="none" d="M778.5,20.5h59a5,5,0,0,1,5,5v12a5,5,0,0,1,-5,5h-59a5,5,0,0,1,-5,-5v-12a5,5,0,0,1,5,-5z" stroke-width="3"></path><g id="node_text6" fill="black"><text id="kity_text_65" text-rendering="inherit" font-size="12" dy=".8em" y="23.700000047683716" x="783.5">业务规则</text></g></g><g id="minder_node37" opacity="1"><g id="node_expander36" style="cursor: pointer;" display="none"><path id="kity_path_483" fill="white" stroke="gray" d="M938.5,83.5A6,6,0,1,1,926.5,83.5A6,6,0,1,1,938.5,83.5"></path><path id="kity_path_484" fill="none" stroke="gray"></path></g><path id="node_outline37" fill="none" stroke="none" d="M943.5,72.5h386a5,5,0,0,1,5,5v12a5,5,0,0,1,-5,5h-386a5,5,0,0,1,-5,-5v-12a5,5,0,0,1,5,-5z" stroke-width="3"></path><g id="node_text37" fill="black"><text id="kity_text_480" text-rendering="inherit" font-size="12" dy=".8em" y="75.70000004768372" x="948.5">注意两点：（1）控制树的深度不要太深（2）控制叶节点数量不要太少</text></g></g><g id="minder_node12" opacity="1"><g id="node_expander11" style="cursor: pointer;"><path id="kity_path_120" fill="white" stroke="gray" d="M773.5,83.5A6,6,0,1,1,761.5,83.5A6,6,0,1,1,773.5,83.5"></path><path id="kity_path_121" fill="none" stroke="gray" d="M763,83.5L772,83.5"></path></g><path id="node_outline12" fill="none" stroke="none" d="M778.5,72.5h134a5,5,0,0,1,5,5v12a5,5,0,0,1,-5,5h-134a5,5,0,0,1,-5,-5v-12a5,5,0,0,1,5,-5z" stroke-width="3"></path><g id="node_text12" fill="black"><text id="kity_text_117" text-rendering="inherit" font-size="12" dy=".8em" y="75.70000004768372" x="783.5">gbdt自动构造组合特征</text></g></g><g id="minder_node18"><g id="node_expander17" style="cursor: pointer;" display="none"><path id="kity_path_180" fill="white" stroke="gray" d="M773.5,135.5A6,6,0,1,1,761.5,135.5A6,6,0,1,1,773.5,135.5"></path><path id="kity_path_181" fill="none" stroke="gray"></path></g><path id="node_outline18" fill="none" stroke="none" d="M778.5,124.5h119a5,5,0,0,1,5,5v12a5,5,0,0,1,-5,5h-119a5,5,0,0,1,-5,-5v-12a5,5,0,0,1,5,-5z" stroke-width="3"></path><g id="node_text18" fill="black"><text id="kity_text_177" text-rendering="inherit" font-size="12" dy=".8em" y="127.70000004768372" x="783.5">（二阶）多项式特征</text></g></g><g id="minder_node33"><g id="node_expander32" style="cursor: pointer;" display="none"><path id="kity_path_448" fill="white" stroke="gray" d="M773.5,187.5A6,6,0,1,1,761.5,187.5A6,6,0,1,1,773.5,187.5"></path><path id="kity_path_449" fill="none" stroke="gray"></path></g><path id="node_outline33" fill="none" stroke="none" d="M778.5,176.5h57a5,5,0,0,1,5,5v12a5,5,0,0,1,-5,5h-57a5,5,0,0,1,-5,-5v-12a5,5,0,0,1,5,-5z" stroke-width="3"></path><g id="node_text33" fill="black"><text id="kity_text_445" text-rendering="inherit" font-size="12" dy=".8em" y="179.70000004768372" x="783.5">one-hot</text></g></g><g id="minder_node16" opacity="1"><g id="node_expander15" style="cursor: pointer;"><path id="kity_path_164" fill="white" stroke="gray" d="M640.5,109.5A6,6,0,1,1,628.5,109.5A6,6,0,1,1,640.5,109.5"></path><path id="kity_path_165" fill="none" stroke="gray" d="M630,109.5L639,109.5"></path></g><path id="node_outline16" fill="none" stroke="none" d="M645.5,98.5h83a5,5,0,0,1,5,5v12a5,5,0,0,1,-5,5h-83a5,5,0,0,1,-5,-5v-12a5,5,0,0,1,5,-5z" stroke-width="3"></path><g id="node_text16" fill="black"><text id="kity_text_161" text-rendering="inherit" font-size="12" dy=".8em" y="101.70000004768372" x="650.5">由简单到复杂</text></g></g><g id="minder_node19"><g id="node_expander18" style="cursor: pointer;" display="none"><path id="kity_path_188" fill="white" stroke="gray" d="M780.5,269.5A6,6,0,1,1,768.5,269.5A6,6,0,1,1,780.5,269.5"></path><path id="kity_path_189" fill="none" stroke="gray"></path></g><path id="node_outline19" fill="none" stroke="none" d="M785.5,258.5h60a5,5,0,0,1,5,5v12a5,5,0,0,1,-5,5h-60a5,5,0,0,1,-5,-5v-12a5,5,0,0,1,5,-5z" stroke-width="3"></path><g id="node_text19" fill="black"><text id="kity_text_185" text-rendering="inherit" font-size="12" dy=".8em" y="261.7000000476837" x="790.5">聚类特征</text></g></g><g id="minder_node21"><g id="node_expander20" style="cursor: pointer;" display="none"><path id="kity_path_212" fill="white" stroke="gray" d="M901.5,321.5A6,6,0,1,1,889.5,321.5A6,6,0,1,1,901.5,321.5"></path><path id="kity_path_213" fill="none" stroke="gray"></path></g><path id="node_outline21" fill="none" stroke="none" d="M906.5,310.5h36a5,5,0,0,1,5,5v12a5,5,0,0,1,-5,5h-36a5,5,0,0,1,-5,-5v-12a5,5,0,0,1,5,-5z" stroke-width="3"></path><g id="node_text21" fill="black"><text id="kity_text_209" text-rendering="inherit" font-size="12" dy=".8em" y="313.7000000476837" x="911.5">等频</text></g></g><g id="minder_node22"><g id="node_expander21" style="cursor: pointer;" display="none"><path id="kity_path_220" fill="white" stroke="gray" d="M901.5,373.5A6,6,0,1,1,889.5,373.5A6,6,0,1,1,901.5,373.5"></path><path id="kity_path_221" fill="none" stroke="gray"></path></g><path id="node_outline22" fill="none" stroke="none" d="M906.5,362.5h36a5,5,0,0,1,5,5v12a5,5,0,0,1,-5,5h-36a5,5,0,0,1,-5,-5v-12a5,5,0,0,1,5,-5z" stroke-width="3"></path><g id="node_text22" fill="black"><text id="kity_text_217" text-rendering="inherit" font-size="12" dy=".8em" y="365.7000000476837" x="911.5">等距</text></g></g><g id="minder_node20"><g id="node_expander19" style="cursor: pointer;"><path id="kity_path_200" fill="white" stroke="gray" d="M780.5,347.5A6,6,0,1,1,768.5,347.5A6,6,0,1,1,780.5,347.5"></path><path id="kity_path_201" fill="none" stroke="gray" d="M770,347.5L779,347.5"></path></g><path id="node_outline20" fill="none" stroke="none" d="M785.5,336.5h71a5,5,0,0,1,5,5v12a5,5,0,0,1,-5,5h-71a5,5,0,0,1,-5,-5v-12a5,5,0,0,1,5,-5z" stroke-width="3"></path><g id="node_text20" fill="black"><text id="kity_text_197" text-rendering="inherit" font-size="12" dy=".8em" y="339.7000000476837" x="790.5">连续值分箱</text></g></g><g id="minder_node23"><g id="node_expander22" style="cursor: pointer;" display="none"><path id="kity_path_269" fill="white" stroke="gray" d="M780.5,425.5A6,6,0,1,1,768.5,425.5A6,6,0,1,1,780.5,425.5"></path><path id="kity_path_270" fill="none" stroke="gray"></path></g><path id="node_outline23" fill="none" stroke="none" d="M785.5,414.5h53a5,5,0,0,1,5,5v12a5,5,0,0,1,-5,5h-53a5,5,0,0,1,-5,-5v-12a5,5,0,0,1,5,-5z" stroke-width="3"></path><g id="node_text23" fill="black"><text id="kity_text_266" text-rendering="inherit" font-size="12" dy=".8em" y="417.7000000476837" x="790.5">log变换</text></g></g><g id="minder_node17" opacity="1"><g id="node_expander16" style="cursor: pointer;"><path id="kity_path_172" fill="white" stroke="gray" d="M647.5,347.5A6,6,0,1,1,635.5,347.5A6,6,0,1,1,647.5,347.5"></path><path id="kity_path_173" fill="none" stroke="gray" d="M637,347.5L646,347.5"></path></g><path id="node_outline17" fill="none" stroke="none" d="M652.5,336.5h83a5,5,0,0,1,5,5v12a5,5,0,0,1,-5,5h-83a5,5,0,0,1,-5,-5v-12a5,5,0,0,1,5,-5z" stroke-width="3"></path><g id="node_text17" fill="black"><text id="kity_text_169" text-rendering="inherit" font-size="12" dy=".8em" y="339.7000000476837" x="657.5">由复杂到简单</text></g></g><g id="minder_node11" opacity="1"><g id="node_expander10" style="cursor: pointer;"><path id="kity_path_109" fill="white" stroke="gray" d="M513.5,256.5A6,6,0,1,1,501.5,256.5A6,6,0,1,1,513.5,256.5"></path><path id="kity_path_110" fill="none" stroke="gray" d="M503,256.5L512,256.5"></path></g><path id="node_outline11" fill="none" stroke="none" d="M518.5,245.5h72a5,5,0,0,1,5,5v12a5,5,0,0,1,-5,5h-72a5,5,0,0,1,-5,-5v-12a5,5,0,0,1,5,-5z" stroke-width="3"></path><g id="node_text11" fill="black"><text id="kity_text_106" text-rendering="inherit" font-size="12" dy=".8em" y="248.70000004768372" x="523.5">规则类特征</text></g></g><g id="minder_node36"><g id="node_expander35" style="cursor: pointer;" display="none"><path id="kity_path_475" fill="white" stroke="gray" d="M773.5,476.5A6,6,0,1,1,761.5,476.5A6,6,0,1,1,773.5,476.5"></path><path id="kity_path_476" fill="none" stroke="gray"></path></g><path id="node_outline36" fill="none" stroke="none" d="M778.5,465.5h389a5,5,0,0,1,5,5v12a5,5,0,0,1,-5,5h-389a5,5,0,0,1,-5,-5v-12a5,5,0,0,1,5,-5z" stroke-width="3"></path><g id="node_text36" fill="black"><text id="kity_text_472" text-rendering="inherit" font-size="12" dy=".8em" y="468.7000000476837" x="783.5">注意：箱与箱之间的WOE差异要大，而它们的样本量差距要尽可能的小</text></g></g><g id="minder_node26"><g id="node_expander25" style="cursor: pointer;"><path id="kity_path_318" fill="white" stroke="gray" d="M683.5,476.5A6,6,0,1,1,671.5,476.5A6,6,0,1,1,683.5,476.5"></path><path id="kity_path_319" fill="none" stroke="gray" d="M673,476.5L682,476.5"></path></g><path id="node_outline26" fill="none" stroke="none" d="M688.5,465.5h40a5,5,0,0,1,5,5v12a5,5,0,0,1,-5,5h-40a5,5,0,0,1,-5,-5v-12a5,5,0,0,1,5,-5z" stroke-width="3"></path><g id="node_text26" fill="black"><text id="kity_text_315" text-rendering="inherit" font-size="12" dy=".8em" y="468.7000000476837" x="693.5">WOE</text></g></g><g id="minder_node27"><g id="node_expander26" style="cursor: pointer;" display="none"><path id="kity_path_326" fill="white" stroke="gray" d="M683.5,528.5A6,6,0,1,1,671.5,528.5A6,6,0,1,1,683.5,528.5"></path><path id="kity_path_327" fill="none" stroke="gray"></path></g><path id="node_outline27" fill="none" stroke="none" d="M688.5,517.5h105a5,5,0,0,1,5,5v12a5,5,0,0,1,-5,5h-105a5,5,0,0,1,-5,-5v-12a5,5,0,0,1,5,-5z" stroke-width="3"></path><g id="node_text27" fill="black"><text id="kity_text_323" text-rendering="inherit" font-size="12" dy=".8em" y="520.7000000476837" x="693.5">Target Encoding</text></g></g><g id="minder_node25" opacity="1"><g id="node_expander24" style="cursor: pointer;"><path id="kity_path_302" fill="white" stroke="gray" d="M525.5,502.5A6,6,0,1,1,513.5,502.5A6,6,0,1,1,525.5,502.5"></path><path id="kity_path_303" fill="none" stroke="gray" d="M515,502.5L524,502.5"></path></g><path id="node_outline25" fill="none" stroke="none" d="M530.5,491.5h108a5,5,0,0,1,5,5v12a5,5,0,0,1,-5,5h-108a5,5,0,0,1,-5,-5v-12a5,5,0,0,1,5,-5z" stroke-width="3"></path><g id="node_text25" fill="black"><text id="kity_text_299" text-rendering="inherit" font-size="12" dy=".8em" y="494.7000000476837" x="535.5">标签相关类的特征</text></g></g><g id="minder_node32" opacity="1"><g id="node_expander31" style="cursor: pointer;" display="none"><path id="kity_path_378" fill="white" stroke="gray" d="M1026.5,792.5A6,6,0,1,1,1014.5,792.5A6,6,0,1,1,1026.5,792.5"></path><path id="kity_path_379" fill="none" stroke="gray"></path></g><path id="node_outline32" fill="none" stroke="none" d="M769.5,781.5h240a5,5,0,0,1,5,5v12a5,5,0,0,1,-5,5h-240a5,5,0,0,1,-5,-5v-12a5,5,0,0,1,5,-5z" stroke-width="3"></path><g id="node_text32" fill="black"><text id="kity_text_375" text-rendering="inherit" font-size="12" dy=".8em" y="784.7000000476837" x="774.5">方差，相关性，Gini指数，Mi互信息，chi2</text></g></g><g id="minder_node30" opacity="1"><g id="node_expander29" style="cursor: pointer;"><path id="kity_path_362" fill="white" stroke="gray" d="M749.5,792.5A6,6,0,1,1,737.5,792.5A6,6,0,1,1,749.5,792.5"></path><path id="kity_path_363" fill="none" stroke="gray" d="M739,792.5L748,792.5"></path></g><path id="node_outline30" fill="none" stroke="none" d="M648.5,781.5h84a5,5,0,0,1,5,5v12a5,5,0,0,1,-5,5h-84a5,5,0,0,1,-5,-5v-12a5,5,0,0,1,5,-5z" stroke-width="3"></path><g id="node_text30" fill="black"><text id="kity_text_359" text-rendering="inherit" font-size="12" dy=".8em" y="784.7000000476837" x="653.5">基于统计指标</text></g></g><g id="minder_node38" opacity="1"><g id="node_expander37" style="cursor: pointer;" display="none"><path id="kity_path_491" fill="white" stroke="gray" d="M919.5,939.5A6,6,0,1,1,907.5,939.5A6,6,0,1,1,919.5,939.5"></path><path id="kity_path_492" fill="none" stroke="gray"></path></g><path id="node_outline38" fill="none" stroke="none" d="M830.5,928.5h72a5,5,0,0,1,5,5v12a5,5,0,0,1,-5,5h-72a5,5,0,0,1,-5,-5v-12a5,5,0,0,1,5,-5z" stroke-width="3"></path><g id="node_text38" fill="black"><text id="kity_text_488" text-rendering="inherit" font-size="12" dy=".8em" y="931.7000000476837" x="835.5">迭代消除法</text></g></g><g id="minder_node39" opacity="1"><g id="node_expander38" style="cursor: pointer;" display="none"><path id="kity_path_499" fill="white" stroke="gray" d="M1016.5,998.5A6,6,0,1,1,1004.5,998.5A6,6,0,1,1,1016.5,998.5"></path><path id="kity_path_500" fill="none" stroke="gray"></path></g><path id="node_outline39" fill="none" stroke="none" d="M834.5,987.5h165a5,5,0,0,1,5,5v12a5,5,0,0,1,-5,5h-165a5,5,0,0,1,-5,-5v-12a5,5,0,0,1,5,-5z" stroke-width="3"></path><g id="node_text39" fill="black"><text id="kity_text_496" text-rendering="inherit" font-size="12" dy=".8em" y="990.7000000476837" x="839.5">直接选择重要度top N的特征</text></g></g><g id="minder_node31" opacity="1"><g id="node_expander30" style="cursor: pointer;"><path id="kity_path_370" fill="white" stroke="gray" d="M784.5,965.5A6,6,0,1,1,772.5,965.5A6,6,0,1,1,784.5,965.5"></path><path id="kity_path_371" fill="none" stroke="gray" d="M774,965.5L783,965.5"></path></g><path id="node_outline31" fill="none" stroke="none" d="M647.5,954.5h120a5,5,0,0,1,5,5v12a5,5,0,0,1,-5,5h-120a5,5,0,0,1,-5,-5v-12a5,5,0,0,1,5,-5z" stroke-width="3"></path><g id="node_text31" fill="black"><text id="kity_text_367" text-rendering="inherit" font-size="12" dy=".8em" y="957.7000000476837" x="652.5">基于模型重要度指标</text></g></g><g id="minder_node35" opacity="1"><g id="node_expander34" style="cursor: pointer;" display="none"><path id="kity_path_466" fill="white" stroke="gray" d="M900.5,880.5A6,6,0,1,1,888.5,880.5A6,6,0,1,1,900.5,880.5"></path><path id="kity_path_467" fill="none" stroke="gray"></path></g><path id="node_outline35" fill="none" stroke="none" d="M796.5,869.5h87a5,5,0,0,1,5,5v12a5,5,0,0,1,-5,5h-87a5,5,0,0,1,-5,-5v-12a5,5,0,0,1,5,-5z" stroke-width="3"></path><g id="node_text35" fill="black"><text id="kity_text_463" text-rendering="inherit" font-size="12" dy=".8em" y="872.7000000476837" x="801.5">IV，PSI，MIC</text></g></g><g id="minder_node34" opacity="1"><g id="node_expander33" style="cursor: pointer;"><path id="kity_path_458" fill="white" stroke="gray" d="M754.5,881.5A6,6,0,1,1,742.5,881.5A6,6,0,1,1,754.5,881.5"></path><path id="kity_path_459" fill="none" stroke="gray" d="M744,881.5L753,881.5"></path></g><path id="node_outline34" fill="none" stroke="none" d="M665.5,870.5h72a5,5,0,0,1,5,5v12a5,5,0,0,1,-5,5h-72a5,5,0,0,1,-5,-5v-12a5,5,0,0,1,5,-5z" stroke-width="3"></path><g id="node_text34" fill="black"><text id="kity_text_455" text-rendering="inherit" font-size="12" dy=".8em" y="873.7000000476837" x="670.5">跨期稳定性</text></g></g><g id="minder_node28" opacity="1"><g id="node_expander27" style="cursor: pointer;"><path id="kity_path_343" fill="white" stroke="gray" d="M594.5,882.5A6,6,0,1,1,582.5,882.5A6,6,0,1,1,594.5,882.5"></path><path id="kity_path_344" fill="none" stroke="gray" d="M584,882.5L593,882.5"></path></g><path id="node_outline28" fill="none" stroke="none" d="M517.5,871.5h60a5,5,0,0,1,5,5v12a5,5,0,0,1,-5,5h-60a5,5,0,0,1,-5,-5v-12a5,5,0,0,1,5,-5z" stroke-width="3"></path><g id="node_text28" fill="black"><text id="kity_text_340" text-rendering="inherit" font-size="12" dy=".8em" y="874.7000000476837" x="522.5">特征筛选</text></g></g><g id="minder_node29" opacity="1"><g id="node_expander28" style="cursor: pointer;"><path id="kity_path_352" fill="white" stroke="gray" d="M605.5,1198.5A6,6,0,1,1,593.5,1198.5A6,6,0,1,1,605.5,1198.5"></path><path id="kity_path_353" fill="none" stroke="gray" d="M595,1198.5L604,1198.5"></path></g><path id="node_outline29" fill="none" stroke="none" d="M528.5,1187.5h60a5,5,0,0,1,5,5v12a5,5,0,0,1,-5,5h-60a5,5,0,0,1,-5,-5v-12a5,5,0,0,1,5,-5z" stroke-width="3"></path><g id="node_text29" fill="black"><text id="kity_text_349" text-rendering="inherit" font-size="12" dy=".8em" y="1190.7000000476837" x="533.5">特征变换</text></g></g><g id="minder_node41" opacity="1"><g id="node_expander40" style="cursor: pointer;" display="none"><path id="kity_path_544" fill="white" stroke="gray" d="M816.5,1076.5A6,6,0,1,1,804.5,1076.5A6,6,0,1,1,816.5,1076.5"></path><path id="kity_path_545" fill="none" stroke="gray"></path></g><path id="node_outline41" fill="none" stroke="none" d="M673.5,1065.5h126a5,5,0,0,1,5,5v12a5,5,0,0,1,-5,5h-126a5,5,0,0,1,-5,-5v-12a5,5,0,0,1,5,-5z" stroke-width="3"></path><g id="node_text41" fill="black"><text id="kity_text_541" text-rendering="inherit" font-size="12" dy=".8em" y="1068.7000000476837" x="678.5">pca（弱化噪声特征）</text></g></g><g id="minder_node45" opacity="1"><g id="node_expander44" style="cursor: pointer;" display="none"><path id="kity_path_580" fill="white" stroke="gray" d="M732.5,1134.5A6,6,0,1,1,720.5,1134.5A6,6,0,1,1,732.5,1134.5"></path><path id="kity_path_581" fill="none" stroke="gray"></path></g><path id="node_outline45" fill="none" stroke="none" d="M680.5,1123.5h35a5,5,0,0,1,5,5v12a5,5,0,0,1,-5,5h-35a5,5,0,0,1,-5,-5v-12a5,5,0,0,1,5,-5z" stroke-width="3"></path><g id="node_text45" fill="black"><text id="kity_text_577" text-rendering="inherit" font-size="12" dy=".8em" y="1126.7000000476837" x="685.5">tsne</text></g></g><g id="minder_node46" opacity="1"><g id="node_expander45" style="cursor: pointer;"><path id="kity_path_588" fill="white" stroke="gray" d="M808.5,1194.5A6,6,0,1,1,796.5,1194.5A6,6,0,1,1,808.5,1194.5"></path><path id="kity_path_589" fill="none" stroke="gray" d="M798,1194.5L807,1194.5"></path></g><path id="node_outline46" fill="none" stroke="none" d="M667.5,1183.5h124a5,5,0,0,1,5,5v12a5,5,0,0,1,-5,5h-124a5,5,0,0,1,-5,-5v-12a5,5,0,0,1,5,-5z" stroke-width="3"></path><g id="node_text46" fill="black"><text id="kity_text_585" text-rendering="inherit" font-size="12" dy=".8em" y="1186.7000000476837" x="672.5">lda（线性判别分析）</text></g></g><g id="minder_node48" opacity="1"><g id="node_expander47" style="cursor: pointer;"><path id="kity_path_643" fill="white" stroke="gray" d="M808.5,1261.5A6,6,0,1,1,796.5,1261.5A6,6,0,1,1,808.5,1261.5"></path><path id="kity_path_644" fill="none" stroke="gray" d="M798,1261.5L807,1261.5"></path></g><path id="node_outline48" fill="none" stroke="none" d="M672.5,1250.5h119a5,5,0,0,1,5,5v12a5,5,0,0,1,-5,5h-119a5,5,0,0,1,-5,-5v-12a5,5,0,0,1,5,-5z" stroke-width="3"></path><g id="node_text48" fill="black"><text id="kity_text_640" text-rendering="inherit" font-size="12" dy=".8em" y="1253.7000000476837" x="677.5">lle（局部线性嵌入）</text></g></g><g id="kity_g_12" display="none"><path id="kity_path_13" fill="none" stroke="rgb(66, 94, 112)" d="M660.5,1221.5h119a5,5,0,0,1,5,5v12a5,5,0,0,1,-5,5h-119a5,5,0,0,1,-5,-5v-12a5,5,0,0,1,5,-5z" stroke-width="5"></path></g><g id="minder_node50" opacity="1"><g id="node_expander49" style="cursor: pointer;" display="none"><path id="kity_path_662" fill="white" stroke="gray" d="M775.5,1328.5A6,6,0,1,1,763.5,1328.5A6,6,0,1,1,775.5,1328.5"></path><path id="kity_path_663" fill="none" stroke="gray"></path></g><path id="node_outline50" fill="none" stroke="none" d="M675.5,1317.5h83a5,5,0,0,1,5,5v12a5,5,0,0,1,-5,5h-83a5,5,0,0,1,-5,-5v-12a5,5,0,0,1,5,-5z" stroke-width="3"></path><g id="node_text50" fill="black"><text id="kity_text_659" text-rendering="inherit" font-size="12" dy=".8em" y="1320.7000000476837" x="680.5">ae（自编码）</text></g></g><g id="minder_node49" opacity="1"><g id="node_expander48" style="cursor: pointer;" display="none"><path id="kity_path_652" fill="white" stroke="gray" d="M1051.5,1261.5A6,6,0,1,1,1039.5,1261.5A6,6,0,1,1,1051.5,1261.5"></path><path id="kity_path_653" fill="none" stroke="gray"></path></g><path id="node_outline49" fill="none" stroke="none" d="M855.5,1250.5h179a5,5,0,0,1,5,5v12a5,5,0,0,1,-5,5h-179a5,5,0,0,1,-5,-5v-12a5,5,0,0,1,5,-5z" stroke-width="3"></path><g id="node_text49" fill="black"><text id="kity_text_649" text-rendering="inherit" font-size="12" dy=".8em" y="1253.7000000476837" x="860.5">降维时保持样本局部的线性特征</text></g></g><g id="minder_node47" opacity="1"><g id="node_expander46" style="cursor: pointer;" display="none"><path id="kity_path_635" fill="white" stroke="gray" d="M1162.5,1196.5A6,6,0,1,1,1150.5,1196.5A6,6,0,1,1,1162.5,1196.5"></path><path id="kity_path_636" fill="none" stroke="gray"></path></g><path id="node_outline47" fill="none" stroke="none" d="M846.5,1185.5h299a5,5,0,0,1,5,5v12a5,5,0,0,1,-5,5h-299a5,5,0,0,1,-5,-5v-12a5,5,0,0,1,5,-5z" stroke-width="3"></path><g id="node_text47" fill="black"><text id="kity_text_632" text-rendering="inherit" font-size="12" dy=".8em" y="1188.7000000476837" x="851.5">同类样例的投影尽可能近，异类样例的投影点尽可能远</text></g></g></g></g></svg>