<svg id="kity_svg_6" xmlns="http://www.w3.org/2000/svg" xmlns:xlink="http://www.w3.org/1999/xlink" version="1.1" width="1649" height="1451" style="background: rgb(251, 251, 251); visibility: visible;" viewBox="0 0 1649 1451"><defs id="kity_defs_7"><linearGradient id="kity_linearGradient_17" x1="0" y1="0" x2="0" y2="1"><stop id="kity_stop_18" offset="0" stop-color="rgb(255, 255, 255)"></stop><stop id="kity_stop_19" offset="1" stop-color="rgb(204, 204, 204)"></stop></linearGradient><marker id="kity_marker_2" orient="auto" refX="6" refY="0" viewBox="-7 -7 14 14" markerWidth="7" markerHeight="7" markerUnits="userSpaceOnUse"><path id="kity_path_3" fill="rgb(115, 161, 191)" stroke="none" d="M6,0A6,6,0,1,1,-6,0A6,6,0,1,1,6,0"></path></marker></defs><g id="kity_g_8"><g id="minder1" text-rendering="geometricPrecision"><g id="minder_connect_group1"><path id="kity_path_31" fill="none" stroke="rgb(115, 161, 191)" stroke-width="1" d="M77.50000184029341,770.5000056549907A246,272,0,0,1,323.5000018402934,498.5000056549907"></path><path id="kity_path_81" fill="none" stroke="rgb(115, 161, 191)" stroke-width="1" d="M77.50000184029341,770.5000056549907A233,395,0,0,0,310.5000018402934,1165.5000056549907"></path><path id="kity_path_393" fill="none" stroke="rgb(115, 161, 191)" stroke-width="1" d="M747.5000018402934,894.5000056549907C756.0000018402934,894.5000056549907,756.0000018402934,894.5000056549907,764.5000018402934,894.5000056549907L1024.5000018402934,894.5000056549907"></path><path id="kity_path_394" fill="none" stroke="rgb(115, 161, 191)" stroke-width="1" d="M592.5000018402934,984.5000056549907C618.0000018402934,984.5000056549907,618.0000018402934,894.5000056549907,643.5000018402934,894.5000056549907L747.5000018402934,894.5000056549907"></path><path id="kity_path_395" fill="none" stroke="rgb(115, 161, 191)" stroke-width="1" d="M782.5000018402934,1067.5000056549907C804.0000018402934,1067.5000056549907,804.0000018402934,1041.5000056549907,825.5000018402934,1041.5000056549907L917.5000018402934,1041.5000056549907"></path><path id="kity_path_396" fill="none" stroke="rgb(115, 161, 191)" stroke-width="1" d="M782.5000018402934,1067.5000056549907C803.0000018402934,1067.5000056549907,803.0000018402934,1100.5000056549907,823.5000018402934,1100.5000056549907L1007.5000018402934,1100.5000056549907"></path><path id="kity_path_397" fill="none" stroke="rgb(115, 161, 191)" stroke-width="1" d="M592.5000018402934,984.5000056549907C617.5000018402934,984.5000056549907,617.5000018402934,1067.5000056549907,642.5000018402934,1067.5000056549907L782.5000018402934,1067.5000056549907"></path><path id="kity_path_398" fill="none" stroke="rgb(115, 161, 191)" stroke-width="1" d="M752.5000018402934,983.5000056549907C772.0000018402934,983.5000056549907,772.0000018402934,982.5000056549907,791.5000018402934,982.5000056549907L898.5000018402934,982.5000056549907"></path><path id="kity_path_399" fill="none" stroke="rgb(115, 161, 191)" stroke-width="1" d="M592.5000018402934,984.5000056549907C626.5000018402934,984.5000056549907,626.5000018402934,983.5000056549907,660.5000018402934,983.5000056549907L752.5000018402934,983.5000056549907"></path><path id="kity_path_400" fill="none" stroke="rgb(115, 161, 191)" stroke-width="1" d="M436.5000018402934,1165.5000056549907C474.5000018402934,1165.5000056549907,474.5000018402934,984.5000056549907,512.5000018402934,984.5000056549907L592.5000018402934,984.5000056549907"></path><path id="kity_path_401" fill="none" stroke="rgb(115, 161, 191)" stroke-width="1" d="M603.5000018402934,1300.5000056549907C636.0000018402934,1300.5000056549907,636.0000018402934,1178.5000056549907,668.5000018402934,1178.5000056549907L814.5000018402934,1178.5000056549907"></path><path id="kity_path_402" fill="none" stroke="rgb(115, 161, 191)" stroke-width="1" d="M603.5000018402934,1300.5000056549907C639.5000018402934,1300.5000056549907,639.5000018402934,1236.5000056549907,675.5000018402934,1236.5000056549907L730.5000018402934,1236.5000056549907"></path><path id="kity_path_403" fill="none" stroke="rgb(115, 161, 191)" stroke-width="1" d="M806.5000018402934,1296.5000056549907C824.0000018402934,1296.5000056549907,824.0000018402934,1298.5000056549907,841.5000018402934,1298.5000056549907L1160.5000018402934,1298.5000056549907"></path><path id="kity_path_404" fill="none" stroke="rgb(115, 161, 191)" stroke-width="1" d="M603.5000018402934,1300.5000056549907C633.0000018402934,1300.5000056549907,633.0000018402934,1296.5000056549907,662.5000018402934,1296.5000056549907L806.5000018402934,1296.5000056549907"></path><path id="kity_path_405" fill="none" stroke="rgb(115, 161, 191)" stroke-width="1" d="M806.5000018402934,1363.5000056549907C829.0000018402934,1363.5000056549907,829.0000018402934,1363.5000056549907,851.5000018402934,1363.5000056549907L1049.5000018402934,1363.5000056549907"></path><path id="kity_path_406" fill="none" stroke="rgb(115, 161, 191)" stroke-width="1" d="M603.5000018402934,1300.5000056549907C635.5000018402934,1300.5000056549907,635.5000018402934,1363.5000056549907,667.5000018402934,1363.5000056549907L806.5000018402934,1363.5000056549907"></path><path id="kity_path_407" fill="none" stroke="rgb(115, 161, 191)" stroke-width="1" d="M603.5000018402934,1300.5000056549907C637.0000018402934,1300.5000056549907,637.0000018402934,1430.5000056549907,670.5000018402934,1430.5000056549907L773.5000018402934,1430.5000056549907"></path><path id="kity_path_408" fill="none" stroke="rgb(115, 161, 191)" stroke-width="1" d="M436.5000018402934,1165.5000056549907C480.0000018402934,1165.5000056549907,480.0000018402934,1300.5000056549907,523.5000018402934,1300.5000056549907L603.5000018402934,1300.5000056549907"></path><path id="kity_path_409" fill="none" stroke="rgb(115, 161, 191)" stroke-width="1" d="M615.5000018402934,751.5000056549907C630.5000018402934,751.5000056549907,630.5000018402934,725.5000056549907,645.5000018402934,725.5000056549907L766.5000018402934,725.5000056549907"></path><path id="kity_path_410" fill="none" stroke="rgb(115, 161, 191)" stroke-width="1" d="M776.5000018402934,777.5000056549907C791.5000018402934,777.5000056549907,791.5000018402934,777.5000056549907,806.5000018402934,777.5000056549907L956.5000018402934,777.5000056549907"></path><path id="kity_path_411" fill="none" stroke="rgb(115, 161, 191)" stroke-width="1" d="M615.5000018402934,751.5000056549907C630.5000018402934,751.5000056549907,630.5000018402934,777.5000056549907,645.5000018402934,777.5000056549907L776.5000018402934,777.5000056549907"></path><path id="kity_path_412" fill="none" stroke="rgb(115, 161, 191)" stroke-width="1" d="M450.5000018402934,498.5000056549907C487.5000018402934,498.5000056549907,487.5000018402934,751.5000056549907,524.5000018402934,751.5000056549907L615.5000018402934,751.5000056549907"></path><path id="kity_path_413" fill="none" stroke="rgb(115, 161, 191)" stroke-width="1" d="M618.5000018402934,624.5000056549907C633.5000018402934,624.5000056549907,633.5000018402934,624.5000056549907,648.5000018402934,624.5000056549907L880.5000018402934,624.5000056549907"></path><path id="kity_path_414" fill="none" stroke="rgb(115, 161, 191)" stroke-width="1" d="M450.5000018402934,498.5000056549907C489.0000018402934,498.5000056549907,489.0000018402934,624.5000056549907,527.5000018402934,624.5000056549907L618.5000018402934,624.5000056549907"></path><path id="kity_path_415" fill="none" stroke="rgb(115, 161, 191)" stroke-width="1" d="M841.5000018402934,44.50000565499067C856.5000018402934,44.50000565499067,856.5000018402934,45.50000565499067,871.5000018402934,45.50000565499067L1117.5000018402934,45.50000565499067"></path><path id="kity_path_416" fill="none" stroke="rgb(115, 161, 191)" stroke-width="1" d="M733.5000018402934,122.50000565499067C748.5000018402934,122.50000565499067,748.5000018402934,44.50000565499067,763.5000018402934,44.50000565499067L841.5000018402934,44.50000565499067"></path><path id="kity_path_417" fill="none" stroke="rgb(115, 161, 191)" stroke-width="1" d="M916.5000018402934,96.50000565499067C922.0000018402934,96.50000565499067,922.0000018402934,96.50000565499067,927.5000018402934,96.50000565499067L1333.5000018402934,96.50000565499067"></path><path id="kity_path_418" fill="none" stroke="rgb(115, 161, 191)" stroke-width="1" d="M733.5000018402934,122.50000565499067C748.5000018402934,122.50000565499067,748.5000018402934,96.50000565499067,763.5000018402934,96.50000565499067L916.5000018402934,96.50000565499067"></path><path id="kity_path_419" fill="none" stroke="rgb(115, 161, 191)" stroke-width="1" d="M733.5000018402934,122.50000565499067C745.5000018402934,122.50000565499067,745.5000018402934,148.50000565499067,757.5000018402934,148.50000565499067L895.5000018402934,148.50000565499067"></path><path id="kity_path_420" fill="none" stroke="rgb(115, 161, 191)" stroke-width="1" d="M733.5000018402934,122.50000565499067C748.5000018402934,122.50000565499067,748.5000018402934,200.50000565499067,763.5000018402934,200.50000565499067L840.5000018402934,200.50000565499067"></path><path id="kity_path_421" fill="none" stroke="rgb(115, 161, 191)" stroke-width="1" d="M595.5000018402934,295.5000056549907C613.0000018402934,295.5000056549907,613.0000018402934,122.50000565499067,630.5000018402934,122.50000565499067L733.5000018402934,122.50000565499067"></path><path id="kity_path_422" fill="none" stroke="rgb(115, 161, 191)" stroke-width="1" d="M739.5000018402934,412.5000056549907C754.5000018402934,412.5000056549907,754.5000018402934,282.5000056549907,769.5000018402934,282.5000056549907L848.5000018402934,282.5000056549907"></path><path id="kity_path_423" fill="none" stroke="rgb(115, 161, 191)" stroke-width="1" d="M860.5000018402934,399.5000056549907C875.5000018402934,399.5000056549907,875.5000018402934,334.5000056549907,890.5000018402934,334.5000056549907L946.5000018402934,334.5000056549907"></path><path id="kity_path_424" fill="none" stroke="rgb(115, 161, 191)" stroke-width="1" d="M860.5000018402934,399.5000056549907C875.5000018402934,399.5000056549907,875.5000018402934,386.5000056549907,890.5000018402934,386.5000056549907L946.5000018402934,386.5000056549907"></path><path id="kity_path_425" fill="none" stroke="rgb(115, 161, 191)" stroke-width="1" d="M1035.5000018402934,438.5000056549907C1039.0000018402934,438.5000056549907,1039.0000018402934,438.5000056549907,1042.5000018402934,438.5000056549907L1629.5000018402934,438.5000056549907"></path><path id="kity_path_426" fill="none" stroke="rgb(115, 161, 191)" stroke-width="1" d="M946.5000018402934,464.5000056549907C961.5000018402934,464.5000056549907,961.5000018402934,438.5000056549907,976.5000018402934,438.5000056549907L1035.5000018402934,438.5000056549907"></path><path id="kity_path_427" fill="none" stroke="rgb(115, 161, 191)" stroke-width="1" d="M946.5000018402934,464.5000056549907C961.5000018402934,464.5000056549907,961.5000018402934,490.5000056549907,976.5000018402934,490.5000056549907L1100.5000018402934,490.5000056549907"></path><path id="kity_path_428" fill="none" stroke="rgb(115, 161, 191)" stroke-width="1" d="M860.5000018402934,399.5000056549907C875.5000018402934,399.5000056549907,875.5000018402934,464.5000056549907,890.5000018402934,464.5000056549907L946.5000018402934,464.5000056549907"></path><path id="kity_path_429" fill="none" stroke="rgb(115, 161, 191)" stroke-width="1" d="M739.5000018402934,412.5000056549907C754.5000018402934,412.5000056549907,754.5000018402934,399.5000056549907,769.5000018402934,399.5000056549907L860.5000018402934,399.5000056549907"></path><path id="kity_path_430" fill="none" stroke="rgb(115, 161, 191)" stroke-width="1" d="M739.5000018402934,412.5000056549907C756.5000018402934,412.5000056549907,756.5000018402934,530.5000056549907,773.5000018402934,530.5000056549907L846.5000018402934,530.5000056549907"></path><path id="kity_path_431" fill="none" stroke="rgb(115, 161, 191)" stroke-width="1" d="M595.5000018402934,295.5000056549907C616.5000018402934,295.5000056549907,616.5000018402934,412.5000056549907,637.5000018402934,412.5000056549907L739.5000018402934,412.5000056549907"></path><path id="kity_path_432" fill="none" stroke="rgb(115, 161, 191)" stroke-width="1" d="M450.5000018402934,498.5000056549907C477.5000018402934,498.5000056549907,477.5000018402934,295.5000056549907,504.5000018402934,295.5000056549907L595.5000018402934,295.5000056549907"></path></g><g id="minder_node1"><path id="node_outline1" fill="rgb(115, 161, 191)" stroke="rgb(115, 161, 191)" d="M25.500001840293407,750.5000056549907h104a5,5,0,0,1,5,5v30a5,5,0,0,1,-5,5h-104a5,5,0,0,1,-5,-5v-30a5,5,0,0,1,5,-5z" stroke-width="3"></path><g id="node_text1" fill="white"><text id="kity_text_22" text-rendering="inherit" font-size="16" dy=".8em" y="760.1000056192279" x="44.50000184029341">特征优化</text></g></g><g id="kity_g_14" display="none"><path id="kity_path_15" fill="none" stroke="none" d="M44.50000184029341,770.5000056549907h0v0h0z"></path><path id="kity_path_16" fill="none" stroke="none"></path></g><g id="minder_node2" opacity="1"><g id="node_expander25" style="cursor: pointer;"><path id="kity_path_313" fill="white" stroke="gray" d="M324.5000059232116,498.5000016018748A6,6,0,1,1,312.5000059232116,498.5000016018748A6,6,0,1,1,324.5000059232116,498.5000016018748"></path><path id="kity_path_314" fill="none" stroke="gray" d="M314.0000059232116,498.5000016018748L323.0000059232116,498.5000016018748"></path></g><path id="node_outline26" fill="rgb(238, 243, 246)" stroke="rgb(115, 161, 191)" d="M328.5000063255429,485.5000016018748h119a3,3,0,0,1,3,3v20a3,3,0,0,1,-3,3h-119a3,3,0,0,1,-3,-3v-20a3,3,0,0,1,3,-3z" stroke-width="1"></path><g id="node_text26" fill="black"><text id="kity_text_163" text-rendering="inherit" font-size="14" dy=".8em" y="489.4000015705824" x="345.5000063255429">增加有用特征</text></g></g><g id="minder_node27" opacity="1"><g id="node_expander42" style="cursor: pointer;"><path id="kity_path_364" fill="white" stroke="gray" d="M449.5000077858567,1165.5000115409493A6,6,0,1,1,437.5000077858567,1165.5000115409493A6,6,0,1,1,449.5000077858567,1165.5000115409493"></path><path id="kity_path_365" fill="none" stroke="gray" d="M439.0000077858567,1165.5000115409493L448.0000077858567,1165.5000115409493"></path></g><path id="node_outline43" fill="rgb(238, 243, 246)" stroke="rgb(115, 161, 191)" d="M315.50000613182783,1152.5000115409493h118a3,3,0,0,1,3,3v20a3,3,0,0,1,-3,3h-118a3,3,0,0,1,-3,-3v-20a3,3,0,0,1,3,-3z" stroke-width="1"></path><g id="node_text43" fill="black"><text id="kity_text_197" text-rendering="inherit" font-size="14" dy=".8em" y="1156.400011509657" x="332.50000613182783">去掉无用特征</text></g></g><g id="kity_g_12" display="none"><path id="kity_path_13" fill="none" stroke="rgb(66, 94, 112)" d="M903.5000018402934,335.5000056549907h36a5,5,0,0,1,5,5v12a5,5,0,0,1,-5,5h-36a5,5,0,0,1,-5,-5v-12a5,5,0,0,1,5,-5z" stroke-width="5"></path></g><g id="minder_node30"><g id="node_expander26" style="cursor: pointer;" display="none"><path id="kity_path_316" fill="white" stroke="gray" d="M1036.5000165328383,880.5000072941184A6,6,0,1,1,1024.5000165328383,880.5000072941184A6,6,0,1,1,1036.5000165328383,880.5000072941184"></path><path id="kity_path_317" fill="none" stroke="gray"></path></g><path id="node_outline27" fill="none" stroke="none" d="M779.5000128671527,869.5000072941184h240a5,5,0,0,1,5,5v12a5,5,0,0,1,-5,5h-240a5,5,0,0,1,-5,-5v-12a5,5,0,0,1,5,-5z" stroke-width="3"></path><g id="node_text27" fill="black"><text id="kity_text_165" text-rendering="inherit" font-size="12" dy=".8em" y="872.7000072672963" x="784.5000128671527">方差，相关性，Gini指数，Mi互信息，chi2</text></g></g><g id="minder_node29"><g id="node_expander27" style="cursor: pointer;"><path id="kity_path_319" fill="white" stroke="gray" d="M759.5000124052167,880.5000072941184A6,6,0,1,1,747.5000124052167,880.5000072941184A6,6,0,1,1,759.5000124052167,880.5000072941184"></path><path id="kity_path_320" fill="none" stroke="gray" d="M749.0000124052167,880.5000072941184L758.0000124052167,880.5000072941184"></path></g><path id="node_outline28" fill="none" stroke="none" d="M658.5000110641122,869.5000072941184h84a5,5,0,0,1,5,5v12a5,5,0,0,1,-5,5h-84a5,5,0,0,1,-5,-5v-12a5,5,0,0,1,5,-5z"></path><g id="node_text28" fill="black"><text id="kity_text_167" text-rendering="inherit" font-size="12" dy=".8em" y="872.7000072672963" x="663.5000110641122">基于统计指标</text></g></g><g id="minder_node32"><g id="node_expander28" style="cursor: pointer;" display="none"><path id="kity_path_322" fill="white" stroke="gray" d="M929.5000149384141,1027.500009484589A6,6,0,1,1,917.5000149384141,1027.500009484589A6,6,0,1,1,929.5000149384141,1027.500009484589"></path><path id="kity_path_323" fill="none" stroke="gray"></path></g><path id="node_outline29" fill="none" stroke="none" d="M840.5000137761235,1016.5000094845891h72a5,5,0,0,1,5,5v12a5,5,0,0,1,-5,5h-72a5,5,0,0,1,-5,-5v-12a5,5,0,0,1,5,-5z"></path><g id="node_text29" fill="black"><text id="kity_text_169" text-rendering="inherit" font-size="12" dy=".8em" y="1019.700009457767" x="845.5000137761235">迭代消除法</text></g></g><g id="minder_node33" opacity="1"><g id="node_expander29" style="cursor: pointer;" display="none"><path id="kity_path_325" fill="white" stroke="gray" d="M1019.5000162795186,1086.5000103637576A6,6,0,1,1,1007.5000162795186,1086.5000103637576A6,6,0,1,1,1019.5000162795186,1086.5000103637576"></path><path id="kity_path_326" fill="none" stroke="gray"></path></g><path id="node_outline30" fill="none" stroke="none" d="M838.5000137463212,1075.5000103637576h164a5,5,0,0,1,5,5v12a5,5,0,0,1,-5,5h-164a5,5,0,0,1,-5,-5v-12a5,5,0,0,1,5,-5z" stroke-width="3"></path><g id="node_text30" fill="black"><text id="kity_text_171" text-rendering="inherit" font-size="12" dy=".8em" y="1078.7000103369355" x="843.5000137463212">直接选择重要度top N的特征</text></g></g><g id="minder_node31"><g id="node_expander30" style="cursor: pointer;"><path id="kity_path_328" fill="white" stroke="gray" d="M794.5000129267573,1053.5000098720193A6,6,0,1,1,782.5000129267573,1053.5000098720193A6,6,0,1,1,794.5000129267573,1053.5000098720193"></path><path id="kity_path_329" fill="none" stroke="gray" d="M784.0000129267573,1053.5000098720193L793.0000129267573,1053.5000098720193"></path></g><path id="node_outline31" fill="none" stroke="none" d="M657.500011049211,1042.5000098720193h120a5,5,0,0,1,5,5v12a5,5,0,0,1,-5,5h-120a5,5,0,0,1,-5,-5v-12a5,5,0,0,1,5,-5z" stroke-width="3"></path><g id="node_text31" fill="black"><text id="kity_text_173" text-rendering="inherit" font-size="12" dy=".8em" y="1045.7000098451972" x="662.500011049211">基于模型重要度指标</text></g></g><g id="minder_node35"><g id="node_expander31" style="cursor: pointer;" display="none"><path id="kity_path_331" fill="white" stroke="gray" d="M910.500014655292,968.5000086054206A6,6,0,1,1,898.500014655292,968.5000086054206A6,6,0,1,1,910.500014655292,968.5000086054206"></path><path id="kity_path_332" fill="none" stroke="gray"></path></g><path id="node_outline32" fill="none" stroke="none" d="M806.500013269484,957.5000086054206h87a5,5,0,0,1,5,5v12a5,5,0,0,1,-5,5h-87a5,5,0,0,1,-5,-5v-12a5,5,0,0,1,5,-5z"></path><g id="node_text32" fill="black"><text id="kity_text_175" text-rendering="inherit" font-size="12" dy=".8em" y="960.7000085785985" x="811.500013269484">IV，PSI，MIC</text></g></g><g id="minder_node34"><g id="node_expander32" style="cursor: pointer;"><path id="kity_path_334" fill="white" stroke="gray" d="M764.5000124797225,969.5000086203218A6,6,0,1,1,752.5000124797225,969.5000086203218A6,6,0,1,1,764.5000124797225,969.5000086203218"></path><path id="kity_path_335" fill="none" stroke="gray" d="M754.0000124797225,969.5000086203218L763.0000124797225,969.5000086203218"></path></g><path id="node_outline33" fill="none" stroke="none" d="M675.5000113174319,958.5000086203218h72a5,5,0,0,1,5,5v12a5,5,0,0,1,-5,5h-72a5,5,0,0,1,-5,-5v-12a5,5,0,0,1,5,-5z" stroke-width="3"></path><g id="node_text33" fill="black"><text id="kity_text_177" text-rendering="inherit" font-size="12" dy=".8em" y="961.7000085934997" x="680.5000113174319">跨期稳定性</text></g></g><g id="minder_node28"><g id="node_expander33" style="cursor: pointer;"><path id="kity_path_337" fill="white" stroke="gray" d="M604.5000100955367,970.5000086352229A6,6,0,1,1,592.5000100955367,970.5000086352229A6,6,0,1,1,604.5000100955367,970.5000086352229"></path><path id="kity_path_338" fill="none" stroke="gray" d="M594.0000100955367,970.5000086352229L603.0000100955367,970.5000086352229"></path></g><path id="node_outline34" fill="none" stroke="none" d="M527.5000091120601,959.5000086352229h60a5,5,0,0,1,5,5v12a5,5,0,0,1,-5,5h-60a5,5,0,0,1,-5,-5v-12a5,5,0,0,1,5,-5z"></path><g id="node_text34" fill="black"><text id="kity_text_179" text-rendering="inherit" font-size="12" dy=".8em" y="962.7000086084008" x="532.5000091120601">特征筛选</text></g></g><g id="minder_node37"><g id="node_expander34" style="cursor: pointer;" display="none"><path id="kity_path_340" fill="white" stroke="gray" d="M826.5000134035945,1164.5000115260482A6,6,0,1,1,814.5000134035945,1164.5000115260482A6,6,0,1,1,826.5000134035945,1164.5000115260482"></path><path id="kity_path_341" fill="none" stroke="gray"></path></g><path id="node_outline35" fill="none" stroke="none" d="M683.5000114366412,1153.5000115260482h126a5,5,0,0,1,5,5v12a5,5,0,0,1,-5,5h-126a5,5,0,0,1,-5,-5v-12a5,5,0,0,1,5,-5z" stroke-width="3"></path><g id="node_text35" fill="black"><text id="kity_text_181" text-rendering="inherit" font-size="12" dy=".8em" y="1156.700011499226" x="688.5000114366412">pca（弱化噪声特征）</text></g></g><g id="minder_node38"><g id="node_expander35" style="cursor: pointer;" display="none"><path id="kity_path_343" fill="white" stroke="gray" d="M742.500012151897,1222.5000123903155A6,6,0,1,1,730.500012151897,1222.5000123903155A6,6,0,1,1,742.500012151897,1222.5000123903155"></path><path id="kity_path_344" fill="none" stroke="gray"></path></g><path id="node_outline36" fill="none" stroke="none" d="M690.5000115409493,1211.5000123903155h35a5,5,0,0,1,5,5v12a5,5,0,0,1,-5,5h-35a5,5,0,0,1,-5,-5v-12a5,5,0,0,1,5,-5z"></path><g id="node_text36" fill="black"><text id="kity_text_183" text-rendering="inherit" font-size="12" dy=".8em" y="1214.7000123634934" x="695.5000115409493">tsne</text></g></g><g id="minder_node40"><g id="node_expander36" style="cursor: pointer;" display="none"><path id="kity_path_346" fill="white" stroke="gray" d="M1172.5000185593963,1284.5000133141875A6,6,0,1,1,1160.5000185593963,1284.5000133141875A6,6,0,1,1,1172.5000185593963,1284.5000133141875"></path><path id="kity_path_347" fill="none" stroke="gray"></path></g><path id="node_outline37" fill="none" stroke="none" d="M856.5000140145421,1273.5000133141875h299a5,5,0,0,1,5,5v12a5,5,0,0,1,-5,5h-299a5,5,0,0,1,-5,-5v-12a5,5,0,0,1,5,-5z" stroke-width="3"></path><g id="node_text37" fill="black"><text id="kity_text_185" text-rendering="inherit" font-size="12" dy=".8em" y="1276.7000132873654" x="861.5000140145421">同类样例的投影尽可能近，异类样例的投影点尽可能远</text></g></g><g id="minder_node39"><g id="node_expander37" style="cursor: pointer;"><path id="kity_path_349" fill="white" stroke="gray" d="M818.5000132843852,1282.5000132843852A6,6,0,1,1,806.5000132843852,1282.5000132843852A6,6,0,1,1,818.5000132843852,1282.5000132843852"></path><path id="kity_path_350" fill="none" stroke="gray" d="M808.0000132843852,1282.5000132843852L817.0000132843852,1282.5000132843852"></path></g><path id="node_outline38" fill="none" stroke="none" d="M677.5000113472342,1271.5000132843852h124a5,5,0,0,1,5,5v12a5,5,0,0,1,-5,5h-124a5,5,0,0,1,-5,-5v-12a5,5,0,0,1,5,-5z"></path><g id="node_text38" fill="black"><text id="kity_text_187" text-rendering="inherit" font-size="12" dy=".8em" y="1274.7000132575631" x="682.5000113472342">lda（线性判别分析）</text></g></g><g id="minder_node42"><g id="node_expander38" style="cursor: pointer;" display="none"><path id="kity_path_352" fill="white" stroke="gray" d="M1061.5000169053674,1349.500014282763A6,6,0,1,1,1049.5000169053674,1349.500014282763A6,6,0,1,1,1061.5000169053674,1349.500014282763"></path><path id="kity_path_353" fill="none" stroke="gray"></path></g><path id="node_outline39" fill="none" stroke="none" d="M866.5000141635537,1338.500014282763h178a5,5,0,0,1,5,5v12a5,5,0,0,1,-5,5h-178a5,5,0,0,1,-5,-5v-12a5,5,0,0,1,5,-5z" stroke-width="3"></path><g id="node_text39" fill="black"><text id="kity_text_189" text-rendering="inherit" font-size="12" dy=".8em" y="1341.700014255941" x="871.5000141635537">降维时保持样本局部的线性特征</text></g></g><g id="minder_node41"><g id="node_expander39" style="cursor: pointer;"><path id="kity_path_355" fill="white" stroke="gray" d="M818.5000132843852,1349.500014282763A6,6,0,1,1,806.5000132843852,1349.500014282763A6,6,0,1,1,818.5000132843852,1349.500014282763"></path><path id="kity_path_356" fill="none" stroke="gray" d="M808.0000132843852,1349.500014282763L817.0000132843852,1349.500014282763"></path></g><path id="node_outline40" fill="none" stroke="none" d="M682.50001142174,1338.500014282763h119a5,5,0,0,1,5,5v12a5,5,0,0,1,-5,5h-119a5,5,0,0,1,-5,-5v-12a5,5,0,0,1,5,-5z"></path><g id="node_text40" fill="black"><text id="kity_text_191" text-rendering="inherit" font-size="12" dy=".8em" y="1341.700014255941" x="687.50001142174">lle（局部线性嵌入）</text></g></g><g id="minder_node43"><g id="node_expander40" style="cursor: pointer;" display="none"><path id="kity_path_358" fill="white" stroke="gray" d="M785.5000127926469,1416.5000152811408A6,6,0,1,1,773.5000127926469,1416.5000152811408A6,6,0,1,1,785.5000127926469,1416.5000152811408"></path><path id="kity_path_359" fill="none" stroke="gray"></path></g><path id="node_outline41" fill="none" stroke="none" d="M685.5000114664435,1405.5000152811408h83a5,5,0,0,1,5,5v12a5,5,0,0,1,-5,5h-83a5,5,0,0,1,-5,-5v-12a5,5,0,0,1,5,-5z"></path><g id="node_text41" fill="black"><text id="kity_text_193" text-rendering="inherit" font-size="12" dy=".8em" y="1408.7000152543187" x="690.5000114664435">ae（自编码）</text></g></g><g id="minder_node36"><g id="node_expander41" style="cursor: pointer;"><path id="kity_path_361" fill="white" stroke="gray" d="M615.5000102594495,1286.5000133439898A6,6,0,1,1,603.5000102594495,1286.5000133439898A6,6,0,1,1,615.5000102594495,1286.5000133439898"></path><path id="kity_path_362" fill="none" stroke="gray" d="M605.0000102594495,1286.5000133439898L614.0000102594495,1286.5000133439898"></path></g><path id="node_outline42" fill="none" stroke="none" d="M538.5000092759728,1275.5000133439898h60a5,5,0,0,1,5,5v12a5,5,0,0,1,-5,5h-60a5,5,0,0,1,-5,-5v-12a5,5,0,0,1,5,-5z" stroke-width="3"></path><g id="node_text42" fill="black"><text id="kity_text_195" text-rendering="inherit" font-size="12" dy=".8em" y="1278.7000133171678" x="543.5000092759728">特征变换</text></g></g><g id="minder_node4"><g id="node_expander1" style="cursor: pointer;" display="none"><path id="kity_path_241" fill="white" stroke="gray" d="M655.5000108554959,711.5000047758222A6,6,0,1,1,643.5000108554959,711.5000047758222A6,6,0,1,1,655.5000108554959,711.5000047758222"></path><path id="kity_path_242" fill="none" stroke="gray"></path></g><path id="node_outline2" fill="none" stroke="none" d="M660.5000110939145,700.5000047758222h101a5,5,0,0,1,5,5v12a5,5,0,0,1,-5,5h-101a5,5,0,0,1,-5,-5v-12a5,5,0,0,1,5,-5z"></path><g id="node_text2" fill="black"><text id="kity_text_115" text-rendering="inherit" font-size="12" dy=".8em" y="703.7000047490001" x="665.5000110939145">FM进行特征交叉</text></g></g><g id="minder_node6"><g id="node_expander2" style="cursor: pointer;" display="none"><path id="kity_path_244" fill="white" stroke="gray" d="M816.5000132545829,763.5000055506825A6,6,0,1,1,804.5000132545829,763.5000055506825A6,6,0,1,1,816.5000132545829,763.5000055506825"></path><path id="kity_path_245" fill="none" stroke="gray"></path></g><path id="node_outline3" fill="none" stroke="none" d="M821.5000134930015,752.5000055506825h130a5,5,0,0,1,5,5v12a5,5,0,0,1,-5,5h-130a5,5,0,0,1,-5,-5v-12a5,5,0,0,1,5,-5z"></path><g id="node_text3" fill="black"><text id="kity_text_117" text-rendering="inherit" font-size="12" dy=".8em" y="755.7000055238605" x="826.5000134930015">比如Wide&amp;Deep模型</text></g></g><g id="minder_node5"><g id="node_expander3" style="cursor: pointer;"><path id="kity_path_247" fill="white" stroke="gray" d="M655.5000108554959,763.5000055506825A6,6,0,1,1,643.5000108554959,763.5000055506825A6,6,0,1,1,655.5000108554959,763.5000055506825"></path><path id="kity_path_248" fill="none" stroke="gray" d="M645.0000108554959,763.5000055506825L654.0000108554959,763.5000055506825"></path></g><path id="node_outline4" fill="none" stroke="none" d="M660.5000110939145,752.5000055506825h111a5,5,0,0,1,5,5v12a5,5,0,0,1,-5,5h-111a5,5,0,0,1,-5,-5v-12a5,5,0,0,1,5,-5z"></path><g id="node_text4" fill="black"><text id="kity_text_119" text-rendering="inherit" font-size="12" dy=".8em" y="755.7000055238605" x="665.5000110939145">DNN进行表征学习</text></g></g><g id="minder_node3"><g id="node_expander4" style="cursor: pointer;"><path id="kity_path_250" fill="white" stroke="gray" d="M534.5000090524554,737.5000051632524A6,6,0,1,1,522.5000090524554,737.5000051632524A6,6,0,1,1,534.5000090524554,737.5000051632524"></path><path id="kity_path_251" fill="none" stroke="gray" d="M524.0000090524554,737.5000051632524L533.0000090524554,737.5000051632524"></path></g><path id="node_outline5" fill="none" stroke="none" d="M539.500009290874,726.5000051632524h71a5,5,0,0,1,5,5v12a5,5,0,0,1,-5,5h-71a5,5,0,0,1,-5,-5v-12a5,5,0,0,1,5,-5z"></path><g id="node_text5" fill="black"><text id="kity_text_121" text-rendering="inherit" font-size="12" dy=".8em" y="729.7000051364303" x="544.500009290874">算法类特征</text></g></g><g id="minder_node8"><g id="node_expander5" style="cursor: pointer;" display="none"><path id="kity_path_253" fill="white" stroke="gray" d="M658.5000109001994,610.5000032708049A6,6,0,1,1,646.5000109001994,610.5000032708049A6,6,0,1,1,658.5000109001994,610.5000032708049"></path><path id="kity_path_254" fill="none" stroke="gray"></path></g><path id="node_outline6" fill="none" stroke="none" d="M663.500011138618,599.5000032708049h212a5,5,0,0,1,5,5v12a5,5,0,0,1,-5,5h-212a5,5,0,0,1,-5,-5v-12a5,5,0,0,1,5,-5z" stroke-width="3"></path><g id="node_text6" fill="black"><text id="kity_text_123" text-rendering="inherit" font-size="12" dy=".8em" y="602.7000032439828" x="668.500011138618">比如最近一周,最近一月xxx特征的聚合</text></g></g><g id="minder_node7"><g id="node_expander6" style="cursor: pointer;"><path id="kity_path_256" fill="white" stroke="gray" d="M537.5000090971589,610.5000032708049A6,6,0,1,1,525.5000090971589,610.5000032708049A6,6,0,1,1,537.5000090971589,610.5000032708049"></path><path id="kity_path_257" fill="none" stroke="gray" d="M527.0000090971589,610.5000032708049L536.0000090971589,610.5000032708049"></path></g><path id="node_outline7" fill="none" stroke="none" d="M542.5000093355775,599.5000032708049h71a5,5,0,0,1,5,5v12a5,5,0,0,1,-5,5h-71a5,5,0,0,1,-5,-5v-12a5,5,0,0,1,5,-5z"></path><g id="node_text7" fill="black"><text id="kity_text_125" text-rendering="inherit" font-size="12" dy=".8em" y="602.7000032439828" x="547.5000093355775">统计类特征</text></g></g><g id="minder_node12"><g id="node_expander7" style="cursor: pointer;" display="none"><path id="kity_path_259" fill="white" stroke="gray" d="M881.5000142231584,31.49999464303255A6,6,0,1,1,869.5000142231584,31.49999464303255A6,6,0,1,1,881.5000142231584,31.49999464303255"></path><path id="kity_path_260" fill="none" stroke="gray"></path></g><path id="node_outline8" fill="none" stroke="none" d="M886.5000144615769,20.49999464303255h226a5,5,0,0,1,5,5v12a5,5,0,0,1,-5,5h-226a5,5,0,0,1,-5,-5v-12a5,5,0,0,1,5,-5z"></path><g id="node_text8" fill="black"><text id="kity_text_127" text-rendering="inherit" font-size="12" dy=".8em" y="23.69999461621046" x="891.5000144615769">即通常采用的手段，通过业务知识造特征</text></g></g><g id="minder_node11"><g id="node_expander8" style="cursor: pointer;"><path id="kity_path_262" fill="white" stroke="gray" d="M773.500012613833,30.49999462813139A6,6,0,1,1,761.500012613833,30.49999462813139A6,6,0,1,1,773.500012613833,30.49999462813139"></path><path id="kity_path_263" fill="none" stroke="gray" d="M763.000012613833,30.49999462813139L772.000012613833,30.49999462813139"></path></g><path id="node_outline9" fill="none" stroke="none" d="M778.5000128522515,19.49999462813139h58a5,5,0,0,1,5,5v12a5,5,0,0,1,-5,5h-58a5,5,0,0,1,-5,-5v-12a5,5,0,0,1,5,-5z"></path><g id="node_text9" fill="black"><text id="kity_text_129" text-rendering="inherit" font-size="12" dy=".8em" y="22.6999946013093" x="783.5000128522515">业务规则</text></g></g><g id="minder_node14"><g id="node_expander9" style="cursor: pointer;" display="none"><path id="kity_path_265" fill="white" stroke="gray" d="M937.5000150576234,82.49999540299177A6,6,0,1,1,925.5000150576234,82.49999540299177A6,6,0,1,1,937.5000150576234,82.49999540299177"></path><path id="kity_path_266" fill="none" stroke="gray"></path></g><path id="node_outline10" fill="none" stroke="none" d="M942.500015296042,71.49999540299177h386a5,5,0,0,1,5,5v12a5,5,0,0,1,-5,5h-386a5,5,0,0,1,-5,-5v-12a5,5,0,0,1,5,-5z"></path><g id="node_text10" fill="black"><text id="kity_text_131" text-rendering="inherit" font-size="12" dy=".8em" y="74.69999537616968" x="947.500015296042">注意两点：（1）控制树的深度不要太深（2）控制叶节点数量不要太少</text></g></g><g id="minder_node13"><g id="node_expander10" style="cursor: pointer;"><path id="kity_path_268" fill="white" stroke="gray" d="M773.500012613833,82.49999540299177A6,6,0,1,1,761.500012613833,82.49999540299177A6,6,0,1,1,773.500012613833,82.49999540299177"></path><path id="kity_path_269" fill="none" stroke="gray" d="M763.000012613833,82.49999540299177L772.000012613833,82.49999540299177"></path></g><path id="node_outline11" fill="none" stroke="none" d="M778.5000128522515,71.49999540299177h133a5,5,0,0,1,5,5v12a5,5,0,0,1,-5,5h-133a5,5,0,0,1,-5,-5v-12a5,5,0,0,1,5,-5z"></path><g id="node_text11" fill="black"><text id="kity_text_133" text-rendering="inherit" font-size="12" dy=".8em" y="74.69999537616968" x="783.5000128522515">gbdt自动构造组合特征</text></g></g><g id="minder_node15" opacity="1"><g id="node_expander11" style="cursor: pointer;" display="none"><path id="kity_path_271" fill="white" stroke="gray" d="M767.500012524426,134.49999617785215A6,6,0,1,1,755.500012524426,134.49999617785215A6,6,0,1,1,767.500012524426,134.49999617785215"></path><path id="kity_path_272" fill="none" stroke="gray"></path></g><path id="node_outline12" fill="none" stroke="none" d="M772.5000127628446,123.49999617785215h118a5,5,0,0,1,5,5v12a5,5,0,0,1,-5,5h-118a5,5,0,0,1,-5,-5v-12a5,5,0,0,1,5,-5z" stroke-width="3"></path><g id="node_text12" fill="black"><text id="kity_text_135" text-rendering="inherit" font-size="12" dy=".8em" y="126.69999615103006" x="777.5000127628446">（二阶）多项式特征</text></g></g><g id="minder_node16"><g id="node_expander12" style="cursor: pointer;" display="none"><path id="kity_path_274" fill="white" stroke="gray" d="M773.500012613833,186.49999695271254A6,6,0,1,1,761.500012613833,186.49999695271254A6,6,0,1,1,773.500012613833,186.49999695271254"></path><path id="kity_path_275" fill="none" stroke="gray"></path></g><path id="node_outline13" fill="none" stroke="none" d="M778.5000128522515,175.49999695271254h57a5,5,0,0,1,5,5v12a5,5,0,0,1,-5,5h-57a5,5,0,0,1,-5,-5v-12a5,5,0,0,1,5,-5z"></path><g id="node_text13" fill="black"><text id="kity_text_137" text-rendering="inherit" font-size="12" dy=".8em" y="178.69999692589045" x="783.5000128522515">one-hot</text></g></g><g id="minder_node10"><g id="node_expander13" style="cursor: pointer;"><path id="kity_path_277" fill="white" stroke="gray" d="M640.5000106319785,108.49999579042196A6,6,0,1,1,628.5000106319785,108.49999579042196A6,6,0,1,1,640.5000106319785,108.49999579042196"></path><path id="kity_path_278" fill="none" stroke="gray" d="M630.0000106319785,108.49999579042196L639.0000106319785,108.49999579042196"></path></g><path id="node_outline14" fill="none" stroke="none" d="M645.5000108703971,97.49999579042196h83a5,5,0,0,1,5,5v12a5,5,0,0,1,-5,5h-83a5,5,0,0,1,-5,-5v-12a5,5,0,0,1,5,-5z"></path><g id="node_text14" fill="black"><text id="kity_text_139" text-rendering="inherit" font-size="12" dy=".8em" y="100.69999576359987" x="650.5000108703971">由简单到复杂</text></g></g><g id="minder_node18"><g id="node_expander14" style="cursor: pointer;" display="none"><path id="kity_path_280" fill="white" stroke="gray" d="M779.5000127032399,268.49999817460775A6,6,0,1,1,767.5000127032399,268.49999817460775A6,6,0,1,1,779.5000127032399,268.49999817460775"></path><path id="kity_path_281" fill="none" stroke="gray"></path></g><path id="node_outline15" fill="none" stroke="none" d="M784.5000129416585,257.49999817460775h59a5,5,0,0,1,5,5v12a5,5,0,0,1,-5,5h-59a5,5,0,0,1,-5,-5v-12a5,5,0,0,1,5,-5z"></path><g id="node_text15" fill="black"><text id="kity_text_141" text-rendering="inherit" font-size="12" dy=".8em" y="260.69999814778566" x="789.5000129416585">聚类特征</text></g></g><g id="minder_node20"><g id="node_expander15" style="cursor: pointer;" display="none"><path id="kity_path_283" fill="white" stroke="gray" d="M900.5000145062804,320.49999894946814A6,6,0,1,1,888.5000145062804,320.49999894946814A6,6,0,1,1,900.5000145062804,320.49999894946814"></path><path id="kity_path_284" fill="none" stroke="gray"></path></g><path id="node_outline16" fill="none" stroke="none" d="M905.500014744699,309.49999894946814h36a5,5,0,0,1,5,5v12a5,5,0,0,1,-5,5h-36a5,5,0,0,1,-5,-5v-12a5,5,0,0,1,5,-5z"></path><g id="node_text16" fill="black"><text id="kity_text_143" text-rendering="inherit" font-size="12" dy=".8em" y="312.69999892264605" x="910.500014744699">等频</text></g></g><g id="minder_node21"><g id="node_expander16" style="cursor: pointer;" display="none"><path id="kity_path_286" fill="white" stroke="gray" d="M900.5000145062804,372.4999997243285A6,6,0,1,1,888.5000145062804,372.4999997243285A6,6,0,1,1,900.5000145062804,372.4999997243285"></path><path id="kity_path_287" fill="none" stroke="gray"></path></g><path id="node_outline17" fill="none" stroke="none" d="M905.500014744699,361.4999997243285h36a5,5,0,0,1,5,5v12a5,5,0,0,1,-5,5h-36a5,5,0,0,1,-5,-5v-12a5,5,0,0,1,5,-5z"></path><g id="node_text17" fill="black"><text id="kity_text_145" text-rendering="inherit" font-size="12" dy=".8em" y="364.6999996975064" x="910.500014744699">等距</text></g></g><g id="minder_node25" opacity="1"><g id="node_expander21" style="cursor: pointer;" display="none"><path id="kity_path_301" fill="white" stroke="gray" d="M1052.500016771257,424.5000004991889A6,6,0,1,1,1040.500016771257,424.5000004991889A6,6,0,1,1,1052.500016771257,424.5000004991889"></path><path id="kity_path_302" fill="none" stroke="gray"></path></g><path id="node_outline22" fill="none" stroke="none" d="M1057.5000170096755,413.5000004991889h567a5,5,0,0,1,5,5v12a5,5,0,0,1,-5,5h-567a5,5,0,0,1,-5,-5v-12a5,5,0,0,1,5,-5z" stroke-width="3"></path><g id="node_text22" fill="black"><text id="kity_text_155" text-rendering="inherit" font-size="12" dy=".8em" y="416.7000004723668" x="1062.5000170096755">注意：箱与箱之间的WOE差异要大，而它们的样本量差距要尽可能的小（通常可以考虑等频分箱再合并）</text></g></g><g id="minder_node24" opacity="1"><g id="node_expander22" style="cursor: pointer;"><path id="kity_path_304" fill="white" stroke="gray" d="M986.5000157877803,424.5000004991889A6,6,0,1,1,974.5000157877803,424.5000004991889A6,6,0,1,1,986.5000157877803,424.5000004991889"></path><path id="kity_path_305" fill="none" stroke="gray" d="M976.0000157877803,424.5000004991889L985.0000157877803,424.5000004991889"></path></g><path id="node_outline23" fill="none" stroke="none" d="M991.5000160261989,413.5000004991889h39a5,5,0,0,1,5,5v12a5,5,0,0,1,-5,5h-39a5,5,0,0,1,-5,-5v-12a5,5,0,0,1,5,-5z" stroke-width="3"></path><g id="node_text23" fill="black"><text id="kity_text_157" text-rendering="inherit" font-size="12" dy=".8em" y="416.7000004723668" x="996.5000160261989">WOE</text></g></g><g id="minder_node26" opacity="1"><g id="node_expander23" style="cursor: pointer;" display="none"><path id="kity_path_307" fill="white" stroke="gray" d="M986.5000157877803,476.5000012740493A6,6,0,1,1,974.5000157877803,476.5000012740493A6,6,0,1,1,986.5000157877803,476.5000012740493"></path><path id="kity_path_308" fill="none" stroke="gray"></path></g><path id="node_outline24" fill="none" stroke="none" d="M991.5000160261989,465.5000012740493h104a5,5,0,0,1,5,5v12a5,5,0,0,1,-5,5h-104a5,5,0,0,1,-5,-5v-12a5,5,0,0,1,5,-5z" stroke-width="3"></path><g id="node_text24" fill="black"><text id="kity_text_159" text-rendering="inherit" font-size="12" dy=".8em" y="468.7000012472272" x="996.5000160261989">Target Encoding</text></g></g><g id="minder_node44"><g id="node_expander43" style="cursor: pointer;"><path id="kity_path_372" fill="white" stroke="gray" d="M900.5000145062804,450.5000008866191A6,6,0,1,1,888.5000145062804,450.5000008866191A6,6,0,1,1,900.5000145062804,450.5000008866191"></path><path id="kity_path_373" fill="none" stroke="gray" d="M890.0000145062804,450.5000008866191L899.0000145062804,450.5000008866191"></path></g><path id="node_outline44" fill="none" stroke="none" d="M905.500014744699,439.5000008866191h36a5,5,0,0,1,5,5v12a5,5,0,0,1,-5,5h-36a5,5,0,0,1,-5,-5v-12a5,5,0,0,1,5,-5z" stroke-width="3"></path><g id="node_text44" fill="black"><text id="kity_text_369" text-rendering="inherit" font-size="12" dy=".8em" y="442.700000859797" x="910.500014744699">衍生</text></g></g><g id="minder_node19"><g id="node_expander17" style="cursor: pointer;"><path id="kity_path_289" fill="white" stroke="gray" d="M779.5000127032399,385.4999999180436A6,6,0,1,1,767.5000127032399,385.4999999180436A6,6,0,1,1,779.5000127032399,385.4999999180436"></path><path id="kity_path_290" fill="none" stroke="gray" d="M769.0000127032399,385.4999999180436L778.0000127032399,385.4999999180436"></path></g><path id="node_outline18" fill="none" stroke="none" d="M784.5000129416585,374.4999999180436h71a5,5,0,0,1,5,5v12a5,5,0,0,1,-5,5h-71a5,5,0,0,1,-5,-5v-12a5,5,0,0,1,5,-5z" stroke-width="3"></path><g id="node_text18" fill="black"><text id="kity_text_147" text-rendering="inherit" font-size="12" dy=".8em" y="377.6999998912215" x="789.5000129416585">连续值分箱</text></g></g><g id="minder_node22" opacity="1"><g id="node_expander18" style="cursor: pointer;" display="none"><path id="kity_path_292" fill="white" stroke="gray" d="M783.5000127628446,516.5000018700957A6,6,0,1,1,771.5000127628446,516.5000018700957A6,6,0,1,1,783.5000127628446,516.5000018700957"></path><path id="kity_path_293" fill="none" stroke="gray"></path></g><path id="node_outline19" fill="none" stroke="none" d="M788.5000130012631,505.50000187009573h53a5,5,0,0,1,5,5v12a5,5,0,0,1,-5,5h-53a5,5,0,0,1,-5,-5v-12a5,5,0,0,1,5,-5z" stroke-width="3"></path><g id="node_text19" fill="black"><text id="kity_text_149" text-rendering="inherit" font-size="12" dy=".8em" y="508.70000184327364" x="793.5000130012631">log变换</text></g></g><g id="minder_node17"><g id="node_expander19" style="cursor: pointer;"><path id="kity_path_295" fill="white" stroke="gray" d="M647.5000107362866,398.5000001117587A6,6,0,1,1,635.5000107362866,398.5000001117587A6,6,0,1,1,647.5000107362866,398.5000001117587"></path><path id="kity_path_296" fill="none" stroke="gray" d="M637.0000107362866,398.5000001117587L646.0000107362866,398.5000001117587"></path></g><path id="node_outline20" fill="none" stroke="none" d="M652.5000109747052,387.5000001117587h82a5,5,0,0,1,5,5v12a5,5,0,0,1,-5,5h-82a5,5,0,0,1,-5,-5v-12a5,5,0,0,1,5,-5z"></path><g id="node_text20" fill="black"><text id="kity_text_151" text-rendering="inherit" font-size="12" dy=".8em" y="390.7000000849366" x="657.5000109747052">由复杂到简单</text></g></g><g id="minder_node9"><g id="node_expander20" style="cursor: pointer;"><path id="kity_path_298" fill="white" stroke="gray" d="M514.5000087544322,281.49999836832285A6,6,0,1,1,502.5000087544322,281.49999836832285A6,6,0,1,1,514.5000087544322,281.49999836832285"></path><path id="kity_path_299" fill="none" stroke="gray" d="M504.0000087544322,281.49999836832285L513.0000087544322,281.49999836832285"></path></g><path id="node_outline21" fill="none" stroke="none" d="M519.5000089928508,270.49999836832285h71a5,5,0,0,1,5,5v12a5,5,0,0,1,-5,5h-71a5,5,0,0,1,-5,-5v-12a5,5,0,0,1,5,-5z" stroke-width="3"></path><g id="node_text21" fill="black"><text id="kity_text_153" text-rendering="inherit" font-size="12" dy=".8em" y="273.69999834150076" x="524.5000089928508">规则类特征</text></g></g></g></g></svg>